<?xml version="1.0" encoding="utf-8"?>
<!-- Generator: Adobe Illustrator 25.0.0, SVG Export Plug-In . SVG Version: 6.00 Build 0)  -->
<svg version="1.1" id="Layer_1" xmlns="http://www.w3.org/2000/svg" xmlns:xlink="http://www.w3.org/1999/xlink" x="0px" y="0px"
	 viewBox="0 0 144 144" style="enable-background:new 0 0 144 144;" xml:space="preserve">
<style type="text/css">
	.st0{fill:#414042;}
	.st1{fill-rule:evenodd;clip-rule:evenodd;fill:#FFFFFF;}
	.st2{fill:#FFFFFF;}
	.st3{fill:#FCAB10;}
	.st4{fill:#EE3272;}
	.st5{fill:#F8333C;}
	.st6{fill:#FF4800;}
</style>
<g>
	<rect x="228.37" y="58.26" class="st0" width="37.61" height="15.51"/>
	<g>
		<path class="st1" d="M254.36,63.69c-0.64,0-1.14,0.17-1.53,0.25l-0.12,0.97c0.19-0.09,0.8-0.26,1.31-0.28
			c0.51-0.02,0.8,0.09,0.7,0.52c-1.5,0-2.51,0.31-2.72,1.28c-0.3,1.67,1.53,1.62,2.26,0.89l-0.09,0.4h1.34l0.58-2.65
			C256.32,63.95,255.3,63.67,254.36,63.69z M254.45,66.4c-0.07,0.35-0.36,0.51-0.7,0.52c-0.3,0.02-0.57-0.25-0.37-0.56
			c0.15-0.26,0.57-0.32,0.82-0.32c0.1,0,0.22,0,0.33,0C254.49,66.17,254.48,66.28,254.45,66.4z"/>
		<polygon class="st1" points="257.23,62.64 256.12,67.73 257.48,67.73 258.6,62.64 257.23,62.64 257.23,62.64 		"/>
		<path class="st1" d="M250.98,62.65h-2.49l-1.1,5.07h1.45l0.37-1.68h1.03c1.01,0,1.85-0.62,2.07-1.67
			C252.56,63.19,251.7,62.65,250.98,62.65z M250.94,64.38c-0.09,0.39-0.48,0.69-0.85,0.69h-0.67l0.3-1.39h0.72
			C250.81,63.69,251.03,64,250.94,64.38z"/>
		<path class="st1" d="M241.33,63.69c-0.63,0-1.13,0.17-1.5,0.25l-0.12,0.97c0.18-0.09,0.78-0.26,1.28-0.28
			c0.5-0.02,0.79,0.09,0.71,0.52c-1.48,0-2.48,0.31-2.69,1.28c-0.29,1.67,1.51,1.62,2.22,0.89l-0.09,0.4h1.34l0.57-2.65
			C243.28,63.95,242.25,63.67,241.33,63.69z M241.43,66.4c-0.07,0.35-0.37,0.51-0.7,0.52c-0.29,0.02-0.54-0.25-0.35-0.56
			c0.15-0.26,0.56-0.32,0.79-0.32c0.12,0,0.22,0,0.34,0C241.47,66.17,241.44,66.28,241.43,66.4z"/>
		<polygon class="st1" points="243.63,63.76 244.96,63.76 245.18,66.12 246.49,63.76 247.87,63.76 244.69,69.42 243.2,69.42 
			244.17,67.75 243.63,63.76 243.63,63.76 		"/>
		<path class="st1" d="M238,62.65h-2.49l-1.11,5.07h1.46l0.36-1.68h1.05c1,0,1.84-0.62,2.06-1.67
			C239.59,63.19,238.73,62.65,238,62.65z M237.96,64.38c-0.09,0.39-0.46,0.69-0.84,0.69h-0.69l0.31-1.39h0.72
			C237.82,63.69,238.06,64,237.96,64.38z"/>
		<path class="st2" d="M258.9,63.3v-0.6h-0.22v-0.08h0.54v0.08h-0.23v0.6H258.9z"/>
		<path class="st2" d="M259.3,63.3v-0.68h0.13l0.16,0.48c0.01,0.04,0.03,0.08,0.03,0.1c0.01-0.02,0.02-0.06,0.04-0.11l0.16-0.47
			h0.12v0.68h-0.09v-0.57l-0.2,0.57h-0.08l-0.2-0.58v0.58H259.3z"/>
	</g>
</g>
<g>
	<rect x="228.37" y="58.26" class="st0" width="37.61" height="15.51"/>
	<g>
		<path class="st2" d="M252.14,66.13c0.01-0.01,0.01-0.02,0.02-0.04c0.18-0.01,0.26-0.23,0.27-0.29c0.03-0.25,0.21-0.42,0.25-0.67
			c0.06-0.39,0.31-0.72,0.46-1.09c0.06-0.14,0.07-0.32,0.26-0.36c0.02-0.01,0.05-0.05,0.06-0.08c0.01-0.14,0.11-0.16,0.22-0.16
			c0.3-0.02,0.59-0.04,0.89,0c0.25,0.03,0.38,0.15,0.39,0.4c0,0.04,0.02,0.08,0.03,0.12c0.1,0.3,0.09,0.64,0.29,0.91
			c0.01,0.01,0.01,0.03,0,0.04c-0.06,0.38,0.13,0.71,0.19,1.06c0.05,0.3,0.1,0.6,0.15,0.9c0.07,0.41,0.08,0.84,0.14,1.26
			c0.03,0.2-0.01,0.34-0.18,0.4c-0.25,0.09-0.5,0.12-0.6-0.07c-0.05-0.1-0.15-0.14-0.23-0.2c-0.01-0.2-0.13-0.24-0.32-0.24
			c-0.47,0.01-0.95,0.01-1.42,0c-0.15,0-0.22,0.05-0.26,0.19c-0.04,0.14-0.11,0.28-0.16,0.42c-0.11,0.13-0.24,0.18-0.41,0.17
			c-0.07-0.01-0.17-0.05-0.21,0.07c-0.14,0-0.28,0-0.41,0c-0.03-0.1-0.11-0.08-0.17-0.07c-0.18,0.02-0.28-0.03-0.25-0.23l0-0.01
			l0.01-0.01c0.21-0.02,0.12-0.15,0.1-0.26l0.01,0c0,0-0.01,0-0.01,0c0.08-0.03,0.12-0.07,0.06-0.15c0.01-0.03,0.02-0.06,0.04-0.09
			c0.11-0.05,0.19-0.12,0.1-0.25c0.01-0.01,0.01-0.02,0.02-0.03c0.04-0.02,0.05-0.05,0.04-0.09c0,0,0,0,0,0
			c0.02-0.01,0.06-0.01,0.07-0.02c0.02-0.03-0.01-0.05-0.04-0.06c0.01-0.01,0.01-0.02,0.02-0.04c0.18-0.03,0.11-0.17,0.12-0.27
			l0-0.01l0.01-0.01c0.03-0.02,0.04-0.04,0.03-0.07c0.02-0.05,0.04-0.09,0.06-0.14c0.1,0,0.12-0.07,0.15-0.14
			c0.09-0.22,0.15-0.45,0.28-0.65C252.22,66.2,252.21,66.15,252.14,66.13z M253.28,66.87c-0.08,0.03-0.11-0.03-0.15-0.08
			c-0.07-0.12-0.21-0.14-0.31-0.23c-0.18-0.15-0.22,0.07-0.33,0.12c-0.24,0.11-0.36,0.35-0.51,0.55c-0.17,0.23-0.19,0.51-0.29,0.77
			c-0.07,0.17,0.09,0.36,0.27,0.38c0.24,0.03,0.4-0.09,0.53-0.26c0.08-0.11,0.18-0.17,0.28-0.23c0.25-0.16,0.55-0.12,0.8-0.1
			c0.46,0.03,0.89-0.11,1.33-0.18c0.19-0.03,0.27-0.18,0.26-0.37c0-0.07-0.03-0.12-0.1-0.13c-0.14-0.02-0.29-0.03-0.43-0.04
			c-0.1-0.01-0.2-0.01-0.21,0.13c-0.01,0.05-0.04,0.07-0.09,0.04c-0.19-0.11-0.4-0.09-0.6-0.09c-0.12,0-0.2-0.04-0.22-0.17
			c0.3,0,0.61,0.07,0.96-0.04c-0.21,0-0.38,0-0.54,0c0-0.02,0-0.03,0-0.05c0.14,0,0.28-0.01,0.41-0.01c0.08,0,0.13-0.01,0.1-0.12
			c-0.14-0.65-0.26-1.3-0.39-1.95c-0.26,0.61-0.48,1.22-0.7,1.83C253.3,66.7,253.24,66.77,253.28,66.87z"/>
		<path class="st2" d="M241.82,66.39c0.04,0.19,0.08,0.39,0.13,0.62c0.05-0.1,0.09-0.17,0.13-0.25c0.12-0.03,0.2-0.12,0.22-0.22
			c0.09-0.31,0.22-0.61,0.36-0.9c0.06-0.13,0.05-0.32,0.12-0.39c0.19-0.19,0.3-0.39,0.29-0.66c0-0.04,0.02-0.11,0.05-0.13
			c0.18-0.11,0.22-0.31,0.28-0.48c0.17-0.44,0.67-0.64,1.08-0.41c0.02,0.01,0.06,0.04,0.05,0.06c-0.04,0.16,0.08,0.35-0.08,0.48
			c-0.07,0.07-0.09,0.15-0.13,0.24c-0.08,0.18-0.13,0.37-0.21,0.54c-0.09,0.19-0.15,0.4-0.27,0.59c-0.25,0.41-0.29,0.92-0.55,1.32
			c-0.15,0.23-0.24,0.48-0.32,0.73c-0.1,0.33-0.2,0.66-0.35,0.97c-0.03,0.06-0.09,0.1-0.14,0.11c-0.16,0.01-0.3,0.08-0.45,0.11
			c-0.64,0.13-0.96-0.16-1.09-0.77c-0.01-0.07,0.04-0.13-0.01-0.2c-0.16-0.26-0.16-0.55-0.15-0.84c0-0.05,0.03-0.12,0.01-0.16
			c-0.15-0.29-0.14-0.61-0.23-0.91c-0.03-0.11-0.14-0.18-0.13-0.3c0.01-0.22-0.02-0.42-0.08-0.63c-0.09-0.3-0.19-0.59-0.37-0.85
			c-0.07-0.1-0.13-0.22-0.05-0.35c0.07-0.11,0.2-0.19,0.29-0.15c0.13,0.06,0.27,0.08,0.4,0.15c0.14,0.08,0.38,0.41,0.43,0.57
			c0.1,0.27,0.26,0.53,0.25,0.83c0,0.01,0.01,0.03,0.01,0.04c0.14,0.41,0.33,0.8,0.38,1.24c0,0.02,0.03,0.04,0.04,0.06
			C241.77,66.45,241.8,66.42,241.82,66.39z"/>
		<path class="st2" d="M249.53,67.26c0-0.04,0-0.09,0-0.13c0.03-0.04,0.02-0.06-0.03-0.08c-0.04-0.01-0.04-0.05-0.04-0.08
			c0.1-0.17-0.07-0.22-0.15-0.29c-0.26-0.23-0.61-0.33-0.85-0.6c-0.01-0.01-0.04-0.02-0.06-0.02c-0.25-0.08-0.47-0.28-0.55-0.48
			c-0.1-0.25-0.32-0.53-0.12-0.84c0.06-0.09-0.03-0.24,0.05-0.34c0.21-0.3,0.4-0.62,0.73-0.82c0.23-0.15,0.48-0.24,0.76-0.25
			c0.2-0.01,0.41,0.05,0.61,0.02c0.34-0.06,0.64,0.12,0.96,0.11c0.13,0,0.2,0.13,0.18,0.24c-0.03,0.14,0.03,0.37-0.17,0.4
			c-0.29,0.05-0.59,0.07-0.87,0.03c-0.32-0.05-0.58,0-0.82,0.21c-0.37,0.32-0.36,0.55,0.01,0.89c0.1,0.09,0.27,0.1,0.32,0.21
			c0.07,0.16,0.2,0.19,0.34,0.22c0.15,0.04,0.29,0.08,0.37,0.24c0.02,0.05,0.07,0.08,0.12,0.11c0.29,0.19,0.55,0.39,0.52,0.78
			c0,0.03,0.02,0.05,0.02,0.08c0,0.2,0.09,0.41,0.03,0.61c-0.06,0.21-0.19,0.4-0.31,0.57c-0.21,0.31-0.54,0.49-0.92,0.55
			c-0.08,0.01-0.15,0.02-0.22,0.05c-0.26,0.13-0.56,0.11-0.83,0.15c-0.36,0.05-0.72-0.08-1.07-0.19c-0.14-0.05-0.3-0.1-0.29-0.25
			c0-0.15,0.08-0.31,0.24-0.38c0.23-0.1,0.47-0.13,0.7-0.04c0.08,0.03,0.17,0.06,0.24,0.02c0.12-0.08,0.25-0.08,0.38-0.07
			c0.3,0.04,0.52-0.07,0.71-0.31C249.62,67.45,249.64,67.37,249.53,67.26z"/>
		<path class="st2" d="M246.38,66.52c-0.01,0.04-0.02,0.08-0.03,0.12c-0.19-0.12-0.15,0.08-0.16,0.13c-0.01,0.21-0.09,0.4-0.12,0.6
			c-0.04,0.25-0.13,0.48-0.18,0.73c-0.04,0.18-0.04,0.41-0.28,0.48c-0.24,0.08-0.49,0.05-0.74,0.02c-0.11-0.01-0.16-0.13-0.12-0.23
			c0.11-0.28-0.03-0.59,0.13-0.86c0.03-0.05,0-0.14-0.01-0.2c-0.01-0.05-0.02-0.09-0.01-0.14c0.08-0.52,0.27-1.01,0.33-1.53
			c0.02-0.17,0.02-0.37,0.11-0.54c0.13-0.23,0.02-0.51,0.16-0.73c0.03-0.04,0-0.09-0.06-0.11c0.01-0.03,0.02-0.05,0.02-0.08
			c0.08,0,0.1-0.06,0.13-0.13c0.26-0.59,0.06-0.62,0.77-0.62c0.02,0,0.04,0,0.06,0c0.4,0,0.48,0.1,0.39,0.49
			c-0.1,0.43-0.14,0.87-0.26,1.3c-0.1,0.35-0.11,0.73-0.24,1.08C246.27,66.39,246.29,66.47,246.38,66.52z"/>
		<path class="st2" d="M241.82,66.39c-0.02,0.03-0.05,0.06-0.07,0.09c-0.01-0.02-0.04-0.04-0.04-0.06
			c-0.04-0.44-0.24-0.83-0.38-1.24c0-0.01-0.01-0.03-0.01-0.04c0.01-0.31-0.15-0.56-0.25-0.83c-0.05-0.16-0.29-0.5-0.43-0.57
			c-0.13-0.07-0.27-0.1-0.4-0.15c-0.1-0.04-0.23,0.04-0.29,0.15c-0.08,0.12-0.02,0.25,0.05,0.35c0.19,0.26,0.28,0.55,0.37,0.85
			c0.06,0.21,0.1,0.41,0.08,0.63c-0.01,0.12,0.09,0.19,0.13,0.3c0.1,0.3,0.08,0.63,0.23,0.91c0.02,0.04-0.01,0.11-0.01,0.16
			c-0.01,0.29-0.02,0.58,0.15,0.84c0.05,0.07,0,0.13,0.01,0.2c0.13,0.61,0.45,0.89,1.09,0.77c0.15-0.03,0.3-0.1,0.45-0.11
			c0.06,0,0.11-0.04,0.14-0.11c0.15-0.31,0.25-0.64,0.35-0.97c0.07-0.25,0.17-0.5,0.32-0.73c0.26-0.4,0.3-0.91,0.55-1.32
			c0.11-0.19,0.17-0.4,0.27-0.59c0.08-0.17,0.13-0.36,0.21-0.54c0.04-0.09,0.06-0.17,0.13-0.24c0.16-0.14,0.03-0.32,0.08-0.48
			c0-0.01-0.03-0.04-0.05-0.06c-0.41-0.23-0.91-0.03-1.08,0.41c-0.07,0.17-0.1,0.37-0.28,0.48c-0.03,0.02-0.05,0.08-0.05,0.13
			c0,0.27-0.1,0.47-0.29,0.66c-0.07,0.07-0.06,0.26-0.12,0.39c-0.14,0.29-0.27,0.59-0.36,0.9c-0.03,0.1-0.1,0.2-0.22,0.22
			c0.3-0.77,0.59-1.53,0.89-2.3c0.14-0.37,0.3-0.74,0.44-1.12c0.05-0.14,0.12-0.17,0.26-0.17c0.44,0.01,0.88,0,1.35,0
			c-0.24,0.57-0.46,1.11-0.69,1.65c-0.54,1.29-1.08,2.57-1.61,3.87c-0.06,0.14-0.12,0.19-0.27,0.18c-0.39-0.01-0.78-0.01-1.16,0
			c-0.15,0-0.2-0.05-0.23-0.19c-0.2-0.89-0.44-1.76-0.66-2.64c-0.15-0.6-0.3-1.2-0.47-1.79c-0.06-0.21-0.19-0.36-0.39-0.46
			c-0.39-0.19-0.81-0.31-1.23-0.43c-0.06-0.02-0.15,0-0.13-0.11c0.01-0.1,0.09-0.09,0.16-0.09c0.78,0,1.56,0,2.35,0
			c0.34,0,0.59,0.2,0.66,0.52C241.5,64.59,241.66,65.49,241.82,66.39z M238.4,63.2c0,0.01-0.01,0.01-0.01,0.02c0.74,0,1.48,0,2.22,0
			c0-0.01,0-0.01,0-0.02C239.87,63.2,239.13,63.2,238.4,63.2z"/>
		<path class="st2" d="M249.53,67.26c0.1,0.11,0.09,0.19-0.01,0.31c-0.19,0.24-0.41,0.35-0.71,0.31c-0.13-0.02-0.26-0.01-0.38,0.07
			c-0.07,0.04-0.16,0.01-0.24-0.02c-0.24-0.09-0.48-0.06-0.7,0.04c-0.16,0.07-0.24,0.23-0.24,0.38c0,0.14,0.15,0.2,0.29,0.25
			c0.35,0.12,0.71,0.24,1.07,0.19c0.28-0.04,0.57-0.02,0.83-0.15c0.07-0.03,0.15-0.04,0.22-0.05c0.38-0.06,0.72-0.24,0.92-0.55
			c0.11-0.17,0.25-0.36,0.31-0.57c0.06-0.2-0.03-0.41-0.03-0.61c0-0.03-0.02-0.05-0.02-0.08c0.03-0.4-0.24-0.6-0.52-0.78
			c-0.05-0.03-0.1-0.07-0.12-0.11c-0.08-0.16-0.22-0.2-0.37-0.24c-0.14-0.04-0.27-0.06-0.34-0.22c-0.05-0.11-0.22-0.12-0.32-0.21
			c-0.37-0.34-0.37-0.57-0.01-0.89c0.24-0.21,0.5-0.25,0.82-0.21c0.28,0.04,0.59,0.02,0.87-0.03c0.2-0.03,0.14-0.26,0.17-0.4
			c0.02-0.11-0.05-0.24-0.18-0.24c-0.33,0.01-0.63-0.17-0.96-0.11c-0.19,0.04-0.4-0.03-0.61-0.02c-0.27,0.01-0.52,0.1-0.76,0.25
			c-0.32,0.2-0.51,0.52-0.73,0.82c-0.07,0.1,0.01,0.25-0.05,0.34c-0.2,0.32,0.02,0.6,0.12,0.84c0.08,0.2,0.29,0.4,0.55,0.48
			c0.02,0.01,0.04,0.01,0.06,0.02c0.23,0.27,0.59,0.37,0.85,0.6c0.08,0.07,0.24,0.12,0.15,0.29c-0.17-0.19-0.39-0.31-0.61-0.42
			c-0.27-0.13-0.54-0.28-0.78-0.47c-0.7-0.57-0.78-1.48-0.2-2.17c0.4-0.48,0.93-0.7,1.53-0.79c0.6-0.1,1.18-0.03,1.76,0.15
			c0.13,0.04,0.18,0.08,0.14,0.23c-0.08,0.29-0.13,0.58-0.19,0.87c-0.02,0.12-0.05,0.18-0.2,0.11c-0.37-0.16-0.77-0.23-1.17-0.2
			c-0.19,0.01-0.37,0.05-0.53,0.16c-0.25,0.17-0.27,0.42-0.05,0.63c0.13,0.12,0.28,0.2,0.43,0.28c0.23,0.13,0.46,0.25,0.68,0.39
			c1.2,0.74,0.82,2.15,0.08,2.69c-0.57,0.42-1.22,0.54-1.9,0.53c-0.47,0-0.94-0.08-1.39-0.22c-0.14-0.04-0.2-0.09-0.16-0.26
			c0.08-0.29,0.13-0.58,0.19-0.87c0.03-0.14,0.05-0.2,0.22-0.12c0.46,0.23,0.96,0.32,1.47,0.27
			C249.13,67.73,249.43,67.64,249.53,67.26z"/>
		<path class="st2" d="M254.75,68.26c0.08,0.06,0.17,0.11,0.23,0.2c0.1,0.19,0.36,0.16,0.6,0.07c0.17-0.06,0.2-0.2,0.18-0.4
			c-0.05-0.42-0.07-0.85-0.14-1.26c-0.05-0.3-0.1-0.6-0.15-0.9c-0.06-0.35-0.25-0.68-0.19-1.06c0-0.01,0-0.03,0-0.04
			c-0.2-0.27-0.2-0.61-0.29-0.91c-0.01-0.04-0.03-0.08-0.03-0.12c-0.01-0.25-0.15-0.38-0.39-0.4c-0.3-0.03-0.59-0.02-0.89,0
			c-0.11,0.01-0.21,0.02-0.22,0.16c0,0.03-0.03,0.08-0.06,0.08c-0.19,0.05-0.2,0.22-0.26,0.36c-0.15,0.37-0.39,0.7-0.46,1.09
			c-0.04,0.25-0.22,0.42-0.25,0.67c-0.01,0.06-0.09,0.28-0.27,0.29c0.35-0.85,0.7-1.7,1.06-2.54c0.1-0.23,0.3-0.36,0.56-0.36
			c0.39-0.01,0.77,0,1.16-0.01c0.13,0,0.14,0.07,0.15,0.16c0.31,1.54,0.62,3.07,0.93,4.61c0.05,0.25,0.1,0.5,0.15,0.75
			c0.02,0.11,0.03,0.18-0.13,0.17c-0.35-0.01-0.71-0.01-1.06,0c-0.09,0-0.14-0.02-0.16-0.11C254.81,68.6,254.78,68.43,254.75,68.26z
			"/>
		<path class="st2" d="M245.41,64.26c0.06,0.02,0.09,0.07,0.06,0.11c-0.14,0.23-0.03,0.5-0.16,0.73c-0.09,0.17-0.09,0.37-0.11,0.54
			c-0.06,0.52-0.25,1.02-0.33,1.53c-0.01,0.05,0,0.09,0.01,0.14c0.01,0.07,0.04,0.16,0.01,0.2c-0.17,0.27-0.02,0.58-0.13,0.86
			c-0.04,0.09,0.01,0.21,0.12,0.23c0.24,0.03,0.49,0.06,0.74-0.02c0.24-0.08,0.24-0.31,0.28-0.48c0.05-0.25,0.14-0.48,0.18-0.73
			c0.04-0.2,0.11-0.39,0.12-0.6c0-0.06-0.04-0.26,0.16-0.13c-0.15,0.71-0.3,1.42-0.45,2.13c-0.02,0.09-0.06,0.11-0.14,0.11
			c-0.4,0-0.8-0.01-1.2,0c-0.16,0-0.12-0.09-0.1-0.17c0.24-1.11,0.47-2.22,0.71-3.32C245.25,65.01,245.33,64.63,245.41,64.26z"/>
		<path class="st2" d="M246.38,66.52c-0.08-0.05-0.11-0.13-0.08-0.21c0.13-0.35,0.14-0.73,0.24-1.08c0.12-0.43,0.16-0.87,0.26-1.3
			c0.09-0.39,0.01-0.49-0.39-0.49c-0.02,0-0.04,0-0.06,0c-0.71,0-0.52,0.02-0.77,0.62c-0.03,0.07-0.05,0.13-0.13,0.13
			c0.06-0.3,0.12-0.61,0.18-0.91c0.02-0.09,0.08-0.1,0.15-0.1c0.4,0,0.8,0,1.2,0c0.09,0,0.13,0.01,0.11,0.13
			C246.84,64.37,246.61,65.45,246.38,66.52z"/>
		<path class="st2" d="M252.14,66.13c0.07,0.02,0.08,0.07,0.05,0.13c-0.13,0.2-0.19,0.43-0.28,0.65c-0.03,0.07-0.06,0.14-0.15,0.14
			C251.86,66.74,251.99,66.43,252.14,66.13z"/>
		<path class="st2" d="M251.12,68.57c-0.02,0.2,0.07,0.25,0.25,0.23c0.06-0.01,0.14-0.03,0.17,0.07c-0.18,0-0.35,0-0.54,0
			C251.02,68.75,251.06,68.66,251.12,68.57z"/>
		<path class="st2" d="M251.96,68.87c0.04-0.12,0.14-0.07,0.21-0.07c0.17,0.01,0.31-0.04,0.41-0.17c-0.01,0.19-0.1,0.28-0.3,0.25
			C252.18,68.86,252.07,68.87,251.96,68.87z"/>
		<path class="st2" d="M251.23,68.28c0.02,0.11,0.1,0.24-0.1,0.26C251.14,68.45,251.19,68.37,251.23,68.28z"/>
		<path class="st2" d="M251.44,67.79c0.09,0.14,0.01,0.2-0.1,0.25C251.35,67.95,251.39,67.87,251.44,67.79z"/>
		<path class="st2" d="M251.66,67.28c0,0.11,0.06,0.24-0.12,0.27C251.56,67.45,251.6,67.36,251.66,67.28z"/>
		<path class="st2" d="M251.3,68.13c0.05,0.08,0.01,0.12-0.06,0.15C251.26,68.23,251.28,68.18,251.3,68.13z"/>
		<path class="st2" d="M251.53,67.59c0.03,0.01,0.05,0.03,0.04,0.06c-0.01,0.02-0.05,0.02-0.07,0.02
			C251.51,67.64,251.52,67.61,251.53,67.59z"/>
		<path class="st2" d="M251.5,67.67c0.01,0.04,0,0.07-0.04,0.09C251.46,67.72,251.46,67.69,251.5,67.67z"/>
		<path class="st2" d="M249.5,67.06c0.04,0.01,0.06,0.04,0.03,0.08C249.52,67.11,249.51,67.08,249.5,67.06z"/>
		<path class="st2" d="M251.7,67.19c0.01,0.03,0,0.05-0.03,0.07C251.68,67.24,251.69,67.21,251.7,67.19z"/>
		<path class="st2" d="M253.5,66.97c0.02,0.13,0.1,0.17,0.22,0.17c0.21,0,0.42-0.02,0.6,0.09c0.05,0.03,0.08,0.01,0.09-0.04
			c0.01-0.14,0.11-0.14,0.21-0.13c0.14,0.01,0.29,0.03,0.43,0.04c0.08,0.01,0.1,0.06,0.1,0.13c0,0.19-0.08,0.34-0.26,0.37
			c-0.44,0.07-0.87,0.21-1.33,0.18c-0.25-0.01-0.55-0.06-0.8,0.1c-0.1,0.07-0.2,0.13-0.28,0.23c-0.12,0.17-0.29,0.29-0.53,0.26
			c-0.18-0.02-0.34-0.21-0.27-0.38c0.1-0.25,0.12-0.54,0.29-0.77c0.15-0.2,0.27-0.44,0.51-0.55c0.11-0.05,0.15-0.28,0.33-0.12
			c0.1,0.08,0.24,0.11,0.31,0.23c0.03,0.05,0.07,0.11,0.15,0.08c0.21-0.01,0.42-0.02,0.63,0.01c0,0.02,0,0.03,0,0.05
			c-0.19,0-0.38,0-0.57,0c0,0.01,0,0.03,0,0.04C253.39,66.97,253.44,66.97,253.5,66.97z"/>
		<path class="st2" d="M253.5,66.97c-0.05,0-0.1,0-0.16,0c0-0.01,0-0.03,0-0.04c0.19,0,0.38,0,0.57,0c0.16,0,0.33,0,0.54,0
			C254.11,67.04,253.8,66.97,253.5,66.97z"/>
		<path class="st2" d="M238.4,63.2c0.74,0,1.47,0,2.21,0c0,0.01,0,0.01,0,0.02c-0.74,0-1.48,0-2.22,0
			C238.39,63.21,238.39,63.21,238.4,63.2z"/>
	</g>
</g>
<g>
	<rect x="228.37" y="58.26" class="st0" width="37.61" height="15.51"/>
	<g>
		<g>
			<path class="st2" d="M239.29,71.43c0-0.18,0-0.37,0-0.55c0-0.06-0.03-0.16,0.07-0.17c0.07-0.01,0.19-0.04,0.21,0.04
				c0.05,0.17,0.13,0.05,0.18,0.02c0.22-0.14,0.44-0.12,0.63,0.05c0.11,0.1,0.16,0.06,0.25-0.01c0.19-0.16,0.42-0.17,0.64-0.06
				c0.21,0.1,0.29,0.29,0.29,0.52c-0.01,0.24-0.01,0.49,0,0.73c0,0.1-0.02,0.16-0.14,0.16c-0.13,0-0.17-0.04-0.16-0.17
				c0.01-0.2,0.01-0.4,0-0.6c0-0.29-0.1-0.41-0.33-0.4c-0.23,0-0.34,0.12-0.34,0.4c0,0.2-0.01,0.4,0,0.6c0,0.12-0.03,0.17-0.16,0.17
				c-0.14,0-0.16-0.06-0.16-0.17c0.01-0.22,0.01-0.44,0-0.66c0-0.21-0.09-0.36-0.32-0.36c-0.22-0.01-0.34,0.12-0.34,0.36
				c0,0.22,0,0.44,0,0.66c0,0.12-0.03,0.17-0.16,0.17c-0.13,0-0.16-0.06-0.16-0.17C239.29,71.8,239.29,71.62,239.29,71.43z"/>
			<path class="st2" d="M254.75,70.89c0-0.21,0.01-0.37,0-0.54c-0.01-0.13,0.03-0.19,0.17-0.18c0.15,0,0.14,0.08,0.14,0.19
				c-0.01,0.55-0.02,1.1-0.01,1.65c0,0.24-0.18,0.23-0.26,0.16c-0.11-0.09-0.16-0.04-0.24-0.01c-0.33,0.14-0.64,0.05-0.85-0.24
				c-0.21-0.3-0.19-0.71,0.06-0.99c0.23-0.25,0.54-0.29,0.85-0.12C254.65,70.82,254.68,70.84,254.75,70.89z M254.32,71.94
				c0.26,0,0.45-0.21,0.44-0.48c0-0.25-0.21-0.47-0.44-0.47c-0.24,0-0.45,0.22-0.44,0.49C253.89,71.74,254.08,71.94,254.32,71.94z"
				/>
			<path class="st2" d="M252.15,71.46c0,0.17-0.01,0.35,0,0.52c0.02,0.24-0.16,0.24-0.26,0.17c-0.12-0.09-0.17-0.03-0.25,0
				c-0.31,0.13-0.63,0.04-0.83-0.24c-0.21-0.3-0.19-0.72,0.05-0.99c0.21-0.24,0.53-0.3,0.83-0.14c0.06,0.04,0.12,0.14,0.18-0.02
				c0.03-0.07,0.14-0.04,0.22-0.03c0.1,0.02,0.06,0.11,0.06,0.17C252.15,71.1,252.15,71.28,252.15,71.46
				C252.15,71.46,252.15,71.46,252.15,71.46z M251.43,70.99c-0.23,0-0.44,0.21-0.45,0.46c-0.01,0.27,0.18,0.49,0.43,0.49
				c0.24,0,0.44-0.19,0.45-0.45C251.88,71.23,251.67,70.99,251.43,70.99z"/>
			<path class="st2" d="M243.33,71.45c0,0.17-0.01,0.35,0,0.52c0.02,0.24-0.17,0.24-0.26,0.17c-0.11-0.09-0.17-0.04-0.26,0
				c-0.31,0.13-0.63,0.04-0.83-0.24c-0.22-0.3-0.2-0.71,0.05-0.99c0.22-0.25,0.53-0.3,0.83-0.13c0.08,0.04,0.12,0.11,0.18-0.03
				c0.03-0.06,0.15-0.03,0.22-0.02c0.1,0.02,0.06,0.11,0.06,0.17C243.34,71.08,243.34,71.26,243.33,71.45
				C243.34,71.45,243.33,71.45,243.33,71.45z M242.17,71.45c0,0.27,0.18,0.46,0.43,0.47c0.26,0,0.46-0.2,0.46-0.47
				c0-0.24-0.21-0.47-0.44-0.48C242.38,70.96,242.17,71.18,242.17,71.45z"/>
			<path class="st2" d="M247.36,71.56c-0.1,0-0.21-0.01-0.31,0c-0.06,0-0.15-0.04-0.17,0.06c-0.01,0.07,0.03,0.13,0.08,0.19
				c0.17,0.17,0.36,0.16,0.55,0.07c0.11-0.05,0.2-0.1,0.26,0.06c0.08,0.18-0.08,0.17-0.16,0.2c-0.34,0.16-0.67,0.12-0.9-0.1
				c-0.22-0.22-0.29-0.59-0.15-0.9c0.13-0.29,0.41-0.45,0.74-0.43c0.36,0.03,0.65,0.4,0.6,0.76c-0.01,0.1-0.07,0.1-0.14,0.1
				C247.62,71.56,247.49,71.56,247.36,71.56z M247.2,71.33c0.04,0,0.09,0.01,0.13,0c0.08-0.02,0.22,0.06,0.24-0.06
				c0.02-0.11-0.08-0.21-0.2-0.25c-0.1-0.04-0.2-0.04-0.31,0c-0.12,0.04-0.21,0.13-0.2,0.24c0.01,0.14,0.15,0.05,0.23,0.07
				C247.13,71.34,247.17,71.33,247.2,71.33z"/>
			<path class="st2" d="M244.3,72.22c-0.2-0.01-0.36-0.04-0.51-0.12c-0.05-0.03-0.16-0.03-0.1-0.14c0.04-0.07,0.07-0.17,0.19-0.11
				c0.13,0.06,0.27,0.09,0.41,0.08c0.11-0.01,0.26-0.01,0.28-0.14c0.02-0.15-0.15-0.14-0.25-0.18c-0.09-0.03-0.19-0.03-0.28-0.05
				c-0.2-0.05-0.34-0.18-0.35-0.4c-0.01-0.22,0.13-0.35,0.32-0.43c0.25-0.09,0.48-0.04,0.71,0.06c0.06,0.03,0.16,0.03,0.11,0.13
				c-0.04,0.08-0.07,0.19-0.21,0.14c-0.12-0.04-0.23-0.07-0.35-0.08c-0.11-0.01-0.23,0.02-0.25,0.14c-0.02,0.14,0.11,0.15,0.22,0.17
				c0.09,0.02,0.19,0.03,0.28,0.05c0.22,0.04,0.37,0.14,0.37,0.39c0,0.25-0.13,0.39-0.36,0.45C244.46,72.2,244.37,72.21,244.3,72.22
				z"/>
			<path class="st2" d="M245.41,71.47c0-0.1,0-0.19,0-0.29c0-0.1-0.02-0.17-0.14-0.16c-0.11,0.01-0.13-0.05-0.13-0.14
				c0.01-0.08-0.01-0.17,0.11-0.16c0.15,0.01,0.17-0.07,0.16-0.19c-0.01-0.12-0.02-0.24,0.18-0.23c0.19,0.01,0.17,0.12,0.15,0.23
				c-0.02,0.17,0.05,0.22,0.2,0.2c0.04-0.01,0.09,0,0.13,0c0.12-0.01,0.17,0.04,0.17,0.16c0,0.11-0.04,0.17-0.15,0.14
				c-0.33-0.07-0.38,0.11-0.35,0.37c0.01,0.05,0,0.1,0,0.16c0,0.34,0.04,0.38,0.38,0.31c0.15-0.03,0.13,0.07,0.17,0.14
				c0.05,0.09,0.03,0.14-0.07,0.17c-0.42,0.15-0.85,0.04-0.81-0.52C245.41,71.6,245.41,71.54,245.41,71.47z"/>
			<path class="st2" d="M249.21,71.36c0-0.19,0.11-0.42,0.36-0.56c0.27-0.15,0.55-0.13,0.83,0c0.11,0.05,0.09,0.11,0.04,0.18
				c-0.04,0.06-0.05,0.17-0.18,0.09c-0.21-0.12-0.43-0.13-0.59,0.07c-0.15,0.19-0.16,0.41-0.02,0.61c0.14,0.2,0.36,0.23,0.56,0.11
				c0.15-0.09,0.19-0.02,0.24,0.1c0.08,0.16-0.06,0.16-0.13,0.19C249.77,72.37,249.21,72.01,249.21,71.36z"/>
			<path class="st2" d="M252.55,71.46c0-0.18,0-0.37,0-0.55c0-0.16,0.19-0.26,0.26-0.15c0.1,0.15,0.15,0.06,0.23,0.02
				c0.08-0.04,0.16-0.08,0.25-0.07c0.07,0.01,0.19-0.02,0.16,0.1c-0.02,0.08-0.01,0.2-0.18,0.19c-0.33-0.02-0.41,0.08-0.42,0.41
				c0,0.2,0,0.4,0,0.6c0,0.12-0.04,0.17-0.17,0.17c-0.13,0-0.16-0.05-0.16-0.17C252.54,71.83,252.54,71.64,252.55,71.46
				C252.54,71.46,252.54,71.46,252.55,71.46z"/>
			<path class="st2" d="M248.22,71.47c0-0.19,0.01-0.39,0-0.58c-0.01-0.21,0.19-0.21,0.23-0.15c0.14,0.19,0.23,0.04,0.34,0
				c0.07-0.03,0.13-0.05,0.2-0.04c0.06,0.01,0.17-0.01,0.13,0.1c-0.02,0.07,0,0.19-0.15,0.2c-0.39,0.01-0.45,0.08-0.45,0.46
				c0,0.17,0,0.35,0,0.52c0,0.12-0.01,0.2-0.16,0.19c-0.14,0-0.15-0.07-0.15-0.18C248.22,71.82,248.22,71.64,248.22,71.47
				C248.22,71.47,248.22,71.47,248.22,71.47z"/>
		</g>
		<g>
			<path class="st3" d="M254.06,64.25c0,2.46-1.99,4.45-4.45,4.45c-0.98,0-1.89-0.32-2.63-0.86c1.11-0.81,1.83-2.12,1.83-3.6
				c0-1.48-0.72-2.79-1.83-3.6c0.74-0.54,1.65-0.86,2.63-0.86C252.07,59.79,254.06,61.79,254.06,64.25z"/>
			<ellipse class="st4" cx="246.98" cy="64.25" rx="1.83" ry="3.6"/>
			<path class="st5" d="M246.98,67.84c-0.74,0.54-1.65,0.86-2.63,0.86c-2.46,0-4.45-1.99-4.45-4.45c0-2.46,1.99-4.45,4.45-4.45
				c0.98,0,1.89,0.32,2.63,0.86c-1.11,0.81-1.83,2.12-1.83,3.6C245.15,65.72,245.87,67.03,246.98,67.84z"/>
		</g>
	</g>
</g>
<g>
	<rect x="228.37" y="58.26" class="st0" width="37.61" height="15.51"/>
	<g>
		<path class="st6" d="M240.82,61.9c0.03,0.79,0.71,3.78,0.71,3.78c0.25,0.61,0.46,0,0.46,0c0.82-2.46-0.86-3.89-0.86-3.89
			C240.71,61.54,240.82,61.9,240.82,61.9 M250.57,61.47c0,0,0.82,0.57,0,0.68c0,0-3.07,0.36-5.36,2.5c0,0-3.42,3-4.71,6.28
			c0,0-0.43,0-0.29-0.64c0.14-0.64,1-3.46,4.82-6.92C245.03,63.36,248.71,60.01,250.57,61.47"/>
		<path class="st2" d="M234.94,66.22c0.14,0.03,0.29,0.05,0.44,0.04c0.7,0,1.17-0.45,1.17-1.02c0-0.51-0.36-0.7-0.84-0.7
			c-0.21,0-0.36,0.01-0.46,0.04L234.94,66.22z M234.55,63.99c0.29-0.07,0.73-0.12,1.15-0.12c0.45,0,0.92,0.09,1.24,0.34
			c0.28,0.22,0.44,0.53,0.44,0.96c0,0.57-0.27,1.04-0.61,1.31c-0.38,0.31-0.94,0.46-1.51,0.46c-0.17,0-0.32-0.02-0.45-0.03
			l-0.35,1.82h-0.81L234.55,63.99z M239.6,65.85c-0.08-0.02-0.19-0.03-0.34-0.03c-0.77,0-1.37,0.86-1.37,1.66
			c0,0.36,0.14,0.66,0.51,0.66c0.39,0,0.87-0.49,1.03-1.37L239.6,65.85z M239.27,68.73c0-0.21,0.03-0.49,0.06-0.78h-0.01
			c-0.34,0.64-0.81,0.86-1.25,0.86c-0.62,0-1.03-0.49-1.03-1.19c0-1.19,0.83-2.45,2.45-2.45c0.36,0,0.71,0.06,1.06,0.16l-0.36,1.82
			c-0.1,0.51-0.16,1.17-0.14,1.59L239.27,68.73z M245.27,67.35c0,0.48,0.25,0.82,0.68,0.82c0.62,0,1.04-0.86,1.04-1.55
			c0-0.36-0.16-0.8-0.66-0.8C245.65,65.81,245.27,66.7,245.27,67.35 M247.84,66.61c0,1.19-0.82,2.2-2.01,2.2
			c-0.88,0-1.42-0.61-1.42-1.44c0-1.18,0.82-2.2,2.01-2.2C247.36,65.17,247.84,65.85,247.84,66.61 M248,68.73l0.45-2.4l0.18-1.08
			h0.74l-0.08,0.62h0.01c0.32-0.46,0.77-0.7,1.25-0.7c0.51,0,0.89,0.3,0.89,0.96c0,0.19-0.03,0.38-0.06,0.57L251,68.73h-0.83
			l0.37-1.97c0.02-0.13,0.04-0.28,0.04-0.42c0-0.29-0.11-0.51-0.44-0.51c-0.38,0-0.86,0.46-1.01,1.27l-0.3,1.61L248,68.73z
			 M253.66,65.79c-0.52,0-0.86,0.47-0.96,0.89c0.86,0.01,1.41-0.11,1.41-0.53C254.11,65.93,253.93,65.79,253.66,65.79 M254.46,68.53
			c-0.34,0.18-0.81,0.28-1.23,0.28c-0.97,0-1.43-0.59-1.43-1.44c0-1.05,0.77-2.2,1.97-2.2c0.69,0,1.12,0.39,1.12,0.98
			c0,0.89-0.94,1.18-2.28,1.15c-0.01,0.12,0.02,0.36,0.09,0.49c0.13,0.23,0.38,0.36,0.71,0.36c0.33,0,0.66-0.08,0.96-0.23
			L254.46,68.53z M256.9,65.79c-0.52,0-0.86,0.47-0.96,0.89c0.86,0.01,1.41-0.11,1.41-0.53C257.34,65.93,257.16,65.79,256.9,65.79
			 M257.69,68.53c-0.34,0.18-0.81,0.28-1.23,0.28c-0.96,0-1.43-0.59-1.43-1.44c0-1.05,0.77-2.2,1.98-2.2c0.69,0,1.12,0.39,1.12,0.98
			c0,0.89-0.94,1.18-2.28,1.15c-0.02,0.12,0.01,0.36,0.09,0.49c0.14,0.23,0.39,0.36,0.72,0.36c0.39,0,0.71-0.1,0.96-0.23
			L257.69,68.53z M258.18,68.73l0.41-2.14c0.09-0.49,0.14-1.03,0.18-1.34h0.72l-0.08,0.73h0.02c0.24-0.47,0.61-0.81,1.08-0.81
			c0.07,0,0.13,0.01,0.19,0.01l-0.17,0.81c-0.04-0.01-0.1-0.01-0.16-0.01c-0.6,0-0.97,0.6-1.11,1.34l-0.27,1.4L258.18,68.73z"/>
	</g>
</g>
<g>
	<rect x="4.5" y="4.5" class="st0" width="135" height="135"/>
	<g id="XMLID_13_">
		<path id="XMLID_17_" class="st2" d="M90.62,25.92H53.38c-15.14,0-27.45,12.32-27.45,27.45v37.25c0,15.14,12.32,27.45,27.45,27.45
			h37.25c15.14,0,27.45-12.32,27.45-27.45V53.38C118.08,38.24,105.76,25.92,90.62,25.92z M108.81,90.62
			c0,10.04-8.14,18.18-18.18,18.18H53.38c-10.04,0-18.18-8.14-18.18-18.18V53.38c0-10.04,8.14-18.18,18.18-18.18h37.25
			c10.04,0,18.18,8.14,18.18,18.18L108.81,90.62L108.81,90.62z"/>
		<path id="XMLID_81_" class="st2" d="M72,48.16c-13.14,0-23.84,10.69-23.84,23.83S58.86,95.83,72,95.83S95.84,85.14,95.84,72
			S85.14,48.16,72,48.16z M72,86.56c-8.04,0-14.56-6.52-14.56-14.56S63.96,57.44,72,57.44c8.04,0,14.56,6.52,14.56,14.56
			C86.56,80.04,80.04,86.56,72,86.56z"/>
		<circle id="XMLID_83_" class="st2" cx="95.88" cy="48.34" r="5.71"/>
	</g>
</g>
</svg>
