<?xml version="1.0" encoding="utf-8"?>
<!-- Generator: Adobe Illustrator 25.0.0, SVG Export Plug-In . SVG Version: 6.00 Build 0)  -->
<svg version="1.1" id="Layer_1" xmlns="http://www.w3.org/2000/svg" xmlns:xlink="http://www.w3.org/1999/xlink" x="0px" y="0px"
	 viewBox="0 0 144 144" style="enable-background:new 0 0 144 144;" xml:space="preserve">
<style type="text/css">
	.st0{fill:#414042;}
	.st1{fill:#FFFFFF;}
</style>
<g>
	<rect x="13.65" y="13.65" class="st0" width="116.71" height="116.71"/>
	<g id="XMLID_59_">
		<g id="XMLID_61_">
			<rect id="XMLID_63_" x="42.07" y="61.61" class="st1" width="12.87" height="41.58"/>
			<path id="XMLID_62_" class="st1" d="M48.44,56.16c4.2,0,7.61-3.44,7.61-7.67s-3.41-7.67-7.61-7.67c-4.2,0-7.61,3.44-7.61,7.67
				S44.24,56.16,48.44,56.16z"/>
		</g>
		<path id="XMLID_60_" class="st1" d="M75.51,81.36c0-5.84,2.69-9.33,7.84-9.33c4.73,0,7.01,3.34,7.01,9.33c0,5.99,0,21.83,0,21.83
			h12.81c0,0,0-15.19,0-26.33c0-11.14-6.31-16.52-15.13-16.52c-8.82,0-12.53,6.87-12.53,6.87v-5.6H63.17v41.58h12.35
			C75.51,103.18,75.51,87.76,75.51,81.36z"/>
	</g>
</g>
</svg>
