<?xml version="1.0" encoding="utf-8"?>
<!-- Generator: Adobe Illustrator 25.0.0, SVG Export Plug-In . SVG Version: 6.00 Build 0)  -->
<svg version="1.1" id="Layer_1" xmlns="http://www.w3.org/2000/svg" xmlns:xlink="http://www.w3.org/1999/xlink" x="0px" y="0px"
	 viewBox="0 0 144 144" style="enable-background:new 0 0 144 144;" xml:space="preserve">
<style type="text/css">
	.st0{fill:#6D6E71;}
</style>
<g>
	<path class="st0" d="M71.98,127.51c0.01,0.01,0.01,0.01,0.02,0.02c-0.01,0.01-0.01,0.01-0.02,0.02V127.51z"/>
	<path class="st0" d="M72,127.53c0.01-0.01,0.01-0.01,0.02-0.02v0.04C72.01,127.55,72.01,127.54,72,127.53z"/>
	<path class="st0" d="M71.98,123.08c0.01,0.01,0.01,0.01,0.02,0.02c-0.01,0.01-0.01,0.01-0.02,0.02V123.08z"/>
	<path class="st0" d="M72.02,123.08v0.04c-0.01-0.01-0.01-0.01-0.02-0.02C72.01,123.09,72.01,123.08,72.02,123.08z"/>
	<path class="st0" d="M109.49,124.19c0,7.24-16.89,13.11-37.72,13.11s-37.72-5.87-37.72-13.11c0-5.66,10.31-10.48,24.76-12.32
		c3.9,4.81,8.28,10.06,13.17,15.81c0.01,0.01,0.01,0.01,0.02,0.02c0.01-0.01,0.01-0.01,0.02-0.02c4.88-5.73,9.24-10.97,13.13-15.76
		C99.37,113.8,109.49,118.59,109.49,124.19z"/>
	<path class="st0" d="M72,123.1c0.01,0.01,0.01,0.01,0.02,0.02v-0.04C72.01,123.08,72.01,123.09,72,123.1z M71.98,123.12
		c0.01-0.01,0.01-0.01,0.02-0.02c-0.01-0.01-0.01-0.01-0.02-0.02V123.12z"/>
	<path class="st0" d="M72,6.69c-24.9,0-45.09,19.75-45.09,44.11c0,1.36,0.06,2.69,0.19,4.02c0.01-0.02,0.02-0.05,0.03-0.07
		c0.19,1.97,0.52,3.89,0.97,5.77c-0.04-0.1-0.07-0.19-0.11-0.28c0.03,0.16,0.07,0.31,0.11,0.46c0,0,0,0.01,0,0.01
		c0.02,0.06,0.04,0.12,0.07,0.17C29.76,65,33.22,71.58,40.41,82.1c5.18,7.57,12.29,17.19,22.02,29.39c2.94,3.68,6.12,7.6,9.56,11.77
		c0.01,0.01,0.01,0.01,0.02,0.02c0.01-0.01,0.01-0.01,0.02-0.02c3.43-4.15,6.6-8.06,9.53-11.73c9.75-12.22,16.87-21.85,22.05-29.43
		c7.18-10.51,10.65-17.1,12.24-21.2c0.02-0.06,0.05-0.12,0.07-0.17c0,0,0-0.01,0-0.01c0.04-0.15,0.07-0.31,0.11-0.46
		c-0.03,0.09-0.07,0.19-0.11,0.28c0.45-1.88,0.78-3.8,0.97-5.77c0.01,0.02,0.02,0.04,0.03,0.07c0.03-0.33,0.06-0.66,0.08-0.99
		c0.07-1,0.1-2.02,0.1-3.04C117.09,26.44,96.9,6.69,72,6.69z M72.02,123.12c-0.01-0.01-0.01-0.01-0.02-0.02
		c-0.01,0.01-0.01,0.01-0.02,0.02v-0.04c0.01,0.01,0.01,0.01,0.02,0.02c0.01-0.01,0.01-0.01,0.02-0.02V123.12z M72.02,67.5
		c-5.67,0-10.74-2.57-14.11-6.61c-1.57-1.87-2.76-4.07-3.48-6.47c-0.02-0.06-0.04-0.12-0.05-0.18c-0.47-1.62-0.72-3.34-0.72-5.11
		c0-10.15,8.22-18.37,18.37-18.37s18.37,8.22,18.37,18.37c0,1.77-0.25,3.49-0.72,5.11c-0.02,0.06-0.03,0.12-0.05,0.18
		c-0.72,2.4-1.92,4.59-3.48,6.47C82.76,64.93,77.69,67.5,72.02,67.5z"/>
	<path class="st0" d="M28.09,60.89c-0.04-0.1-0.07-0.19-0.11-0.28c-0.42-1.83-0.72-3.7-0.89-5.6c0.01-0.01,0.01-0.02,0.01-0.03
		C27.3,56.99,27.63,58.96,28.09,60.89z"/>
	<path class="st0" d="M28.09,60.89c-0.04-0.1-0.07-0.19-0.11-0.28c-0.42-1.83-0.72-3.7-0.89-5.6c0.01-0.01,0.01-0.02,0.01-0.03
		C27.3,56.99,27.63,58.96,28.09,60.89z"/>
</g>
</svg>
