<?xml version="1.0" encoding="utf-8"?>
<!-- Generator: Adobe Illustrator 25.0.0, SVG Export Plug-In . SVG Version: 6.00 Build 0)  -->
<svg version="1.1" id="Layer_1" xmlns="http://www.w3.org/2000/svg" xmlns:xlink="http://www.w3.org/1999/xlink" x="0px" y="0px"
	 viewBox="0 0 144 144" style="enable-background:new 0 0 144 144;" xml:space="preserve">
<style type="text/css">
	.st0{fill:#414042;}
	.st1{fill:#FFFFFF;}
	.st2{fill:#FCAB10;}
	.st3{fill:#EE3272;}
	.st4{fill:#F8333C;}
</style>
<g>
	<rect x="4.03" y="46.89" class="st0" width="135.94" height="50.23"/>
	<g>
		<g>
			<path class="st1" d="M43.5,89.55c0-0.59-0.01-1.19,0.01-1.78c0-0.21-0.11-0.5,0.26-0.54c0.26-0.03,0.68-0.14,0.77,0.12
				c0.2,0.56,0.46,0.18,0.65,0.07c0.81-0.46,1.59-0.39,2.26,0.16c0.39,0.32,0.57,0.21,0.91-0.04c0.7-0.52,1.51-0.55,2.31-0.2
				c0.75,0.34,1.06,0.92,1.04,1.68c-0.02,0.79-0.02,1.58-0.01,2.38c0.01,0.33-0.06,0.52-0.51,0.52c-0.46,0-0.61-0.14-0.6-0.54
				c0.03-0.65,0.02-1.3,0.01-1.95c-0.01-0.94-0.36-1.31-1.18-1.3c-0.83,0.01-1.21,0.4-1.23,1.28c-0.01,0.65-0.02,1.3-0.01,1.95
				c0.01,0.39-0.11,0.55-0.59,0.56c-0.49,0.01-0.58-0.18-0.56-0.56c0.03-0.71,0.02-1.42,0-2.12c-0.02-0.68-0.33-1.15-1.17-1.17
				c-0.79-0.02-1.23,0.4-1.24,1.18c-0.01,0.71-0.01,1.42,0.01,2.12c0.01,0.39-0.11,0.55-0.58,0.55c-0.48,0-0.58-0.18-0.57-0.56
				C43.51,90.74,43.49,90.14,43.5,89.55z"/>
			<path class="st1" d="M99.38,87.79c0-0.68,0.02-1.21,0-1.75c-0.02-0.42,0.1-0.61,0.62-0.6c0.53,0.01,0.52,0.27,0.52,0.6
				c-0.03,1.78-0.08,3.56-0.05,5.34c0.01,0.79-0.66,0.74-0.95,0.52c-0.38-0.29-0.57-0.13-0.85-0.02c-1.19,0.46-2.33,0.17-3.07-0.78
				c-0.77-0.99-0.67-2.31,0.23-3.2c0.82-0.81,1.97-0.95,3.08-0.37C99.01,87.57,99.11,87.63,99.38,87.79z M97.83,91.18
				c0.92,0,1.62-0.68,1.6-1.55c-0.02-0.81-0.74-1.51-1.58-1.52c-0.87,0-1.61,0.73-1.6,1.58C96.27,90.53,96.96,91.18,97.83,91.18z"/>
			<path class="st1" d="M89.97,89.65c0,0.56-0.05,1.13,0.01,1.69c0.08,0.77-0.6,0.78-0.93,0.54c-0.42-0.3-0.61-0.11-0.92,0.01
				c-1.13,0.43-2.28,0.12-3-0.79c-0.77-0.97-0.69-2.32,0.19-3.21c0.77-0.79,1.92-0.96,3-0.44c0.23,0.11,0.43,0.44,0.65-0.06
				c0.1-0.22,0.52-0.14,0.79-0.09c0.36,0.07,0.22,0.36,0.23,0.57c0.02,0.59,0,1.19,0,1.78C89.98,89.65,89.97,89.65,89.97,89.65z
				 M87.39,88.1c-0.83-0.02-1.58,0.67-1.62,1.49c-0.05,0.86,0.66,1.57,1.57,1.58c0.88,0.01,1.59-0.62,1.63-1.45
				C89.01,88.9,88.24,88.12,87.39,88.1z"/>
			<path class="st1" d="M58.11,89.59c0,0.57-0.05,1.14,0.01,1.7c0.08,0.78-0.61,0.79-0.93,0.55c-0.41-0.3-0.61-0.13-0.92-0.01
				c-1.13,0.44-2.27,0.14-3.01-0.77c-0.78-0.97-0.71-2.31,0.18-3.22c0.78-0.8,1.9-0.97,3-0.43c0.27,0.13,0.45,0.34,0.65-0.1
				c0.09-0.21,0.53-0.11,0.8-0.07c0.37,0.06,0.21,0.37,0.22,0.56C58.14,88.4,58.12,89,58.11,89.59
				C58.12,89.59,58.12,89.59,58.11,89.59z M53.9,89.61c0,0.86,0.65,1.49,1.54,1.51c0.93,0.02,1.66-0.66,1.65-1.52
				c-0.01-0.79-0.75-1.52-1.58-1.55C54.65,88.02,53.91,88.73,53.9,89.61z"/>
			<path class="st1" d="M72.67,89.97c-0.38,0-0.76-0.02-1.13,0c-0.22,0.01-0.56-0.13-0.63,0.19c-0.05,0.22,0.1,0.43,0.28,0.6
				c0.6,0.55,1.29,0.52,2,0.22c0.41-0.18,0.71-0.31,0.95,0.19c0.27,0.57-0.3,0.53-0.57,0.65c-1.22,0.53-2.43,0.39-3.24-0.33
				c-0.81-0.72-1.04-1.92-0.55-2.91c0.47-0.95,1.47-1.47,2.67-1.39c1.31,0.08,2.35,1.29,2.16,2.45c-0.05,0.34-0.26,0.33-0.52,0.33
				C73.62,89.97,73.15,89.97,72.67,89.97z M72.09,89.22c0.16,0,0.32,0.03,0.47-0.01c0.29-0.07,0.79,0.21,0.85-0.21
				c0.05-0.36-0.28-0.67-0.71-0.8c-0.37-0.12-0.74-0.13-1.11-0.01c-0.42,0.13-0.77,0.42-0.72,0.79c0.05,0.44,0.55,0.16,0.84,0.23
				C71.83,89.25,71.96,89.23,72.09,89.22z"/>
			<path class="st1" d="M61.61,92.08c-0.73-0.02-1.31-0.14-1.85-0.4c-0.18-0.09-0.57-0.11-0.36-0.45c0.15-0.23,0.24-0.54,0.7-0.35
				c0.46,0.19,0.96,0.3,1.47,0.27c0.41-0.03,0.96-0.03,1.02-0.45c0.07-0.48-0.52-0.47-0.89-0.57c-0.33-0.09-0.69-0.09-1.02-0.17
				c-0.74-0.18-1.24-0.57-1.26-1.3c-0.02-0.73,0.46-1.14,1.17-1.38c0.89-0.3,1.74-0.14,2.57,0.19c0.2,0.08,0.59,0.08,0.4,0.42
				c-0.14,0.25-0.26,0.61-0.76,0.46c-0.42-0.12-0.85-0.24-1.28-0.28c-0.38-0.03-0.84,0.06-0.9,0.46c-0.07,0.47,0.41,0.48,0.78,0.54
				c0.34,0.05,0.69,0.09,1.03,0.15c0.79,0.13,1.35,0.46,1.35,1.27c0.01,0.81-0.46,1.26-1.29,1.46
				C62.19,92.02,61.84,92.05,61.61,92.08z"/>
			<path class="st1" d="M65.62,89.68c0-0.31-0.01-0.62,0.01-0.93c0.02-0.33-0.07-0.56-0.52-0.51c-0.4,0.04-0.49-0.16-0.46-0.46
				c0.02-0.25-0.04-0.56,0.4-0.53c0.55,0.04,0.62-0.23,0.59-0.62c-0.03-0.4-0.09-0.77,0.63-0.76c0.67,0.02,0.61,0.38,0.56,0.73
				c-0.08,0.55,0.17,0.72,0.74,0.64c0.15-0.02,0.32,0.01,0.47,0c0.45-0.05,0.61,0.12,0.6,0.53c-0.01,0.37-0.16,0.54-0.56,0.47
				c-1.19-0.23-1.39,0.34-1.26,1.21c0.02,0.17,0,0.34,0,0.51c0,1.1,0.14,1.23,1.38,0.99c0.54-0.1,0.47,0.24,0.6,0.45
				c0.18,0.28,0.1,0.45-0.27,0.56c-1.53,0.49-3.07,0.11-2.93-1.69C65.63,90.08,65.62,89.88,65.62,89.68z"/>
			<path class="st1" d="M79.34,89.32c0-0.62,0.38-1.36,1.31-1.8c0.99-0.47,1.99-0.43,3,0c0.38,0.16,0.33,0.36,0.14,0.6
				c-0.16,0.2-0.18,0.55-0.67,0.3c-0.74-0.38-1.54-0.42-2.14,0.23c-0.55,0.61-0.59,1.32-0.08,1.96c0.52,0.66,1.28,0.74,2.01,0.36
				c0.55-0.29,0.67-0.05,0.88,0.31c0.28,0.5-0.21,0.52-0.48,0.61C81.39,92.59,79.36,91.41,79.34,89.32z"/>
			<path class="st1" d="M91.41,89.64c0-0.59-0.01-1.19,0.01-1.78c0.01-0.5,0.68-0.85,0.96-0.49c0.36,0.47,0.55,0.21,0.84,0.07
				c0.28-0.14,0.56-0.27,0.89-0.24c0.25,0.03,0.68-0.07,0.59,0.33c-0.06,0.26-0.02,0.66-0.65,0.63c-1.19-0.06-1.49,0.25-1.51,1.33
				c-0.01,0.65-0.01,1.3,0.02,1.95c0.02,0.4-0.15,0.54-0.6,0.54c-0.47,0-0.6-0.16-0.58-0.55c0.03-0.59,0.01-1.19,0.01-1.78
				C91.39,89.64,91.4,89.64,91.41,89.64z"/>
			<path class="st1" d="M75.77,89.66c0-0.62,0.03-1.25-0.01-1.87c-0.04-0.68,0.7-0.67,0.85-0.49c0.5,0.61,0.84,0.14,1.24-0.01
				c0.24-0.09,0.48-0.15,0.73-0.11c0.23,0.03,0.62-0.02,0.49,0.33c-0.09,0.23,0.01,0.63-0.56,0.63c-1.43,0.02-1.64,0.24-1.64,1.49
				c0,0.57-0.01,1.13,0.01,1.7c0.02,0.39-0.02,0.63-0.59,0.62c-0.52-0.01-0.55-0.23-0.54-0.59C75.78,90.79,75.77,90.23,75.77,89.66
				C75.77,89.66,75.77,89.66,75.77,89.66z"/>
		</g>
		<g>
			<path class="st2" d="M96.9,66.27c0,7.97-7.21,14.43-16.1,14.43c-3.55,0-6.84-1.03-9.5-2.78c4-2.62,6.6-6.86,6.6-11.65
				c0-4.78-2.6-9.02-6.6-11.65c2.66-1.75,5.95-2.78,9.5-2.78C89.69,51.85,96.9,58.31,96.9,66.27z"/>
			<ellipse class="st3" cx="71.29" cy="66.27" rx="6.6" ry="11.65"/>
			<path class="st4" d="M71.29,77.92c-2.66,1.75-5.95,2.78-9.5,2.78c-8.89,0-16.1-6.46-16.1-14.43s7.21-14.43,16.1-14.43
				c3.55,0,6.84,1.03,9.5,2.78c-4,2.62-6.6,6.86-6.6,11.65C64.7,71.06,67.29,75.3,71.29,77.92z"/>
		</g>
	</g>
</g>
</svg>
