<?xml version="1.0" encoding="utf-8"?>
<!-- Generator: Adobe Illustrator 25.0.0, SVG Export Plug-In . SVG Version: 6.00 Build 0)  -->
<svg version="1.1" id="Layer_1" xmlns="http://www.w3.org/2000/svg" xmlns:xlink="http://www.w3.org/1999/xlink" x="0px" y="0px"
	 viewBox="0 0 144 144" style="enable-background:new 0 0 144 144;" xml:space="preserve">
<style type="text/css">
	.st0{fill:#414042;}
	.st1{fill:#FF4800;}
	.st2{fill:#FFFFFF;}
</style>
<g>
	<rect x="4.03" y="46.89" class="st0" width="135.94" height="50.23"/>
	<g>
		<path class="st1" d="M49.03,58.67c0.12,2.54,2.58,12.26,2.58,12.26c0.9,1.97,1.67,0,1.67,0c2.98-7.98-3.1-12.6-3.1-12.6
			C48.64,57.51,49.03,58.67,49.03,58.67 M84.26,57.28c0,0,2.98,1.86,0,2.2c0,0-11.1,1.16-19.36,8.09c0,0-12.38,9.71-17.03,20.35
			c0,0-1.55,0-1.04-2.08c0.51-2.08,3.61-11.21,17.41-22.43c0,0,13.29-10.87,20.01-6.13"/>
		<path class="st2" d="M27.79,72.67c0.52,0.1,1.05,0.15,1.58,0.14c2.52,0,4.23-1.46,4.23-3.32c0-1.66-1.31-2.26-3.02-2.26
			c-0.75,0-1.31,0.04-1.67,0.13L27.79,72.67z M26.37,65.45c1.05-0.23,2.64-0.37,4.17-0.37c1.63,0,3.32,0.3,4.47,1.12
			c1.01,0.7,1.6,1.71,1.6,3.1c0,1.85-0.97,3.36-2.22,4.24c-1.39,0.99-3.38,1.48-5.45,1.48c-0.62,0-1.17-0.07-1.63-0.11l-1.27,5.9
			h-2.93L26.37,65.45z M44.63,71.46c-0.31-0.07-0.7-0.11-1.23-0.11c-2.77,0-4.95,2.8-4.95,5.37c0,1.18,0.5,2.15,1.83,2.15
			c1.43,0,3.13-1.57,3.72-4.44L44.63,71.46z M43.42,80.8c0-0.67,0.1-1.57,0.2-2.52h-0.05c-1.25,2.06-2.93,2.78-4.52,2.78
			c-2.25,0-3.72-1.57-3.72-3.86c0-3.86,3-7.95,8.86-7.95c1.3,0.01,2.58,0.18,3.82,0.52l-1.31,5.88c-0.36,1.66-0.57,3.8-0.52,5.14
			L43.42,80.8z M65.11,76.33c0,1.55,0.9,2.65,2.46,2.65c2.25,0,3.75-2.79,3.75-5.03c0-1.17-0.59-2.6-2.4-2.6
			C66.5,71.35,65.11,74.22,65.11,76.33 M74.41,73.92c0,3.86-2.98,7.13-7.26,7.13c-3.18,0-5.14-1.97-5.14-4.65
			c0-3.82,2.98-7.13,7.26-7.13c3.38,0,5.14,2.18,5.14,4.66 M74.97,80.8l1.63-7.78l0.65-3.5h2.69l-0.28,2.01h0.05
			c1.17-1.5,2.77-2.27,4.52-2.27c1.83,0,3.2,0.97,3.2,3.1c-0.02,0.62-0.09,1.24-0.23,1.86l-1.38,6.58H82.8l1.35-6.37
			c0.08-0.42,0.16-0.9,0.16-1.35c0-0.94-0.4-1.64-1.58-1.64c-1.37,0-3.12,1.49-3.67,4.13l-1.09,5.21L74.97,80.8z M95.44,71.28
			c-1.89,0-3.12,1.51-3.49,2.87c3.1,0.03,5.09-0.34,5.09-1.7C97.05,71.73,96.4,71.28,95.44,71.28 M98.32,80.15
			c-1.25,0.58-2.93,0.9-4.43,0.9c-3.5,0-5.17-1.92-5.17-4.67c0-3.41,2.78-7.12,7.13-7.12c2.48,0,4.06,1.28,4.06,3.18
			c0,2.89-3.38,3.81-8.25,3.72c-0.05,0.39,0.06,1.17,0.34,1.6c0.49,0.76,1.39,1.17,2.58,1.17c1.21,0.01,2.4-0.25,3.47-0.74
			L98.32,80.15z M107.14,71.28c-1.88,0-3.12,1.51-3.49,2.87c3.1,0.03,5.09-0.34,5.09-1.7C108.75,71.73,108.1,71.28,107.14,71.28
			 M110.02,80.15c-1.25,0.58-2.92,0.9-4.43,0.9c-3.49,0-5.17-1.92-5.17-4.67c0-3.41,2.8-7.12,7.14-7.12c2.48,0,4.06,1.28,4.06,3.18
			c0,2.89-3.4,3.81-8.25,3.72c-0.06,0.39,0.05,1.17,0.33,1.6c0.5,0.76,1.4,1.17,2.59,1.17c1.43,0,2.56-0.32,3.46-0.74L110.02,80.15z
			 M111.77,80.8l1.48-6.95c0.33-1.6,0.52-3.34,0.63-4.33h2.61l-0.28,2.36h0.08c0.86-1.51,2.22-2.63,3.91-2.63
			c0.24,0,0.46,0.03,0.68,0.03l-0.6,2.64c-0.16-0.02-0.36-0.02-0.57-0.02c-2.15,0-3.52,1.95-4.01,4.35l-0.96,4.54L111.77,80.8z"/>
	</g>
</g>
</svg>
