<?xml version="1.0" encoding="utf-8"?>
<!-- Generator: Adobe Illustrator 25.0.0, SVG Export Plug-In . SVG Version: 6.00 Build 0)  -->
<svg version="1.1" id="Layer_1" xmlns="http://www.w3.org/2000/svg" xmlns:xlink="http://www.w3.org/1999/xlink" x="0px" y="0px"
	 viewBox="0 0 144 144" style="enable-background:new 0 0 144 144;" xml:space="preserve">
<style type="text/css">
	.st0{fill:#414042;}
	.st1{fill-rule:evenodd;clip-rule:evenodd;fill:#FFFFFF;}
	.st2{fill:#FFFFFF;}
</style>
<g>
	<rect x="4.03" y="46.89" class="st0" width="135.94" height="50.23"/>
	<g>
		<path class="st1" d="M97.96,64.46c-2.31,0-4.14,0.55-5.53,0.8L92,68.4c0.7-0.3,2.9-0.85,4.73-0.9c1.83-0.05,2.9,0.3,2.53,1.7
			c-5.43,0-9.08,1-9.83,4.15c-1.08,5.39,5.54,5.24,8.17,2.9l-0.32,1.3h4.84l2.1-8.59C105.06,65.31,101.35,64.41,97.96,64.46z
			 M98.29,73.25c-0.27,1.15-1.29,1.65-2.52,1.7c-1.07,0.05-2.04-0.8-1.34-1.8c0.54-0.85,2.04-1.05,2.96-1.05c0.38,0,0.81,0,1.18,0
			C98.45,72.5,98.39,72.85,98.29,73.25z"/>
		<polygon class="st1" points="108.34,61.06 104.33,77.55 109.25,77.55 113.3,61.06 108.34,61.06 108.34,61.06 		"/>
		<path class="st1" d="M85.76,61.11h-8.99l-3.99,16.43h5.22l1.35-5.44h3.72c3.66,0,6.68-2,7.49-5.39
			C91.47,62.86,88.35,61.11,85.76,61.11z M85.6,66.71c-0.32,1.25-1.72,2.25-3.07,2.25h-2.42l1.08-4.5h2.59
			C85.12,64.46,85.93,65.46,85.6,66.71z"/>
		<path class="st1" d="M50.86,64.46c-2.28,0-4.09,0.55-5.42,0.8l-0.42,3.15c0.64-0.3,2.81-0.85,4.62-0.9
			c1.81-0.05,2.87,0.3,2.55,1.7c-5.36,0-8.97,1-9.71,4.15c-1.06,5.39,5.47,5.24,8.02,2.9l-0.32,1.3H55l2.07-8.59
			C57.92,65.31,54.2,64.41,50.86,64.46z M51.23,73.25c-0.27,1.15-1.33,1.65-2.55,1.7c-1.06,0.05-1.96-0.8-1.27-1.8
			c0.53-0.85,2.02-1.05,2.87-1.05c0.42,0,0.8,0,1.22,0C51.39,72.5,51.28,72.85,51.23,73.25z"/>
		<polygon class="st1" points="59.18,64.69 64.01,64.69 64.78,72.35 69.51,64.69 74.5,64.69 63.02,83.01 57.62,83.01 61.15,77.63 
			59.18,64.69 59.18,64.69 		"/>
		<path class="st1" d="M38.84,61.11h-9.02l-4,16.43h5.29l1.3-5.44h3.78c3.62,0,6.64-2,7.45-5.39
			C44.57,62.86,41.49,61.11,38.84,61.11z M38.68,66.71c-0.32,1.25-1.67,2.25-3.02,2.25h-2.48l1.13-4.5h2.59
			C38.2,64.46,39.06,65.46,38.68,66.71z"/>
		<path class="st2" d="M114.36,63.19v-1.94h-0.81v-0.26h1.95v0.26h-0.81v1.94H114.36z"/>
		<path class="st2" d="M115.82,63.19v-2.2h0.49l0.58,1.56c0.05,0.15,0.09,0.25,0.12,0.33c0.03-0.08,0.07-0.2,0.13-0.35l0.59-1.53
			h0.44v2.2h-0.31v-1.84l-0.72,1.84h-0.29l-0.71-1.87v1.87H115.82z"/>
	</g>
</g>
</svg>
