<?xml version="1.0" encoding="utf-8"?>
<!-- Generator: Adobe Illustrator 25.0.0, SVG Export Plug-In . SVG Version: 6.00 Build 0)  -->
<svg version="1.1" id="Layer_1" xmlns="http://www.w3.org/2000/svg" xmlns:xlink="http://www.w3.org/1999/xlink" x="0px" y="0px"
	 viewBox="0 0 144 144" style="enable-background:new 0 0 144 144;" xml:space="preserve">
<style type="text/css">
	.st0{fill-rule:evenodd;clip-rule:evenodd;fill:#6D6E71;}
</style>
<g>
	<g id="XMLID_3_">
		<path id="XMLID_4_" class="st0" d="M127.73,95.99c-3.09-1.51-18.06-8.85-20.85-9.84c-2.8-1.05-4.84-1.51-6.87,1.52
			c-2.04,3.03-7.92,9.84-9.67,11.82c-1.8,2.04-3.55,2.27-6.64,0.76c-3.03-1.52-12.87-4.66-24.52-15.03
			c-9.03-7.98-15.2-17.88-16.95-20.91c-1.75-3.03-0.17-4.66,1.34-6.17c1.4-1.4,3.03-3.55,4.6-5.3c0.41-0.53,0.76-0.99,1.11-1.46
			c0.7-1.11,1.22-2.16,1.92-3.61c1.05-2.04,0.53-3.78-0.23-5.3c-0.76-1.52-6.87-16.43-9.44-22.48c-2.5-6.06-5.07-5.01-6.87-5.01
			c-1.75,0-3.79-0.29-5.82-0.29c-2.04,0-5.36,0.76-8.16,3.78c-2.8,3.03-10.66,10.37-10.66,25.28c0,3.49,0.64,6.99,1.57,10.31
			c3.09,10.66,9.73,19.45,10.89,20.97c1.51,1.98,21.09,33.55,52.07,45.72c31.04,12.06,31.04,8.04,36.64,7.51
			c5.59-0.47,18.06-7.28,20.56-14.39c2.57-7.05,2.57-13.11,1.81-14.39C132.79,98.26,130.75,97.51,127.73,95.99z"/>
	</g>
</g>
</svg>
