<?xml version="1.0" encoding="utf-8"?>
<!-- Generator: Adobe Illustrator 25.0.0, SVG Export Plug-In . SVG Version: 6.00 Build 0)  -->
<svg version="1.1" id="Layer_1" xmlns="http://www.w3.org/2000/svg" xmlns:xlink="http://www.w3.org/1999/xlink" x="0px" y="0px"
	 viewBox="0 0 144 144" style="enable-background:new 0 0 144 144;" xml:space="preserve">
<style type="text/css">
	.st0{fill:#414042;}
	.st1{fill:#FFFFFF;}
</style>
<g>
	<rect x="13.65" y="13.65" class="st0" width="116.71" height="116.71"/>
	<path id="XMLID_71_" class="st1" d="M38.87,92.82c6.02,3.86,13.16,6.11,20.84,6.11c25.24,0,39.5-21.32,38.64-40.44
		c2.66-1.91,4.96-4.31,6.78-7.04c-2.44,1.08-5.06,1.81-7.81,2.14c2.81-1.68,4.96-4.34,5.98-7.52c-2.63,1.56-5.54,2.69-8.63,3.3
		c-2.48-2.64-6.01-4.29-9.93-4.29c-8.77,0-15.22,8.19-13.24,16.69c-11.3-0.57-21.32-5.98-28.02-14.21
		c-3.56,6.11-1.85,14.11,4.21,18.15c-2.23-0.07-4.33-0.68-6.16-1.7c-0.15,6.3,4.37,12.19,10.9,13.5c-1.91,0.52-4.01,0.64-6.14,0.23
		c1.73,5.4,6.75,9.33,12.7,9.44C53.28,91.67,46.08,93.67,38.87,92.82z"/>
</g>
</svg>
