<?xml version="1.0" encoding="utf-8"?>
<!-- Generator: Adobe Illustrator 25.0.0, SVG Export Plug-In . SVG Version: 6.00 Build 0)  -->
<svg version="1.1" id="Layer_1" xmlns="http://www.w3.org/2000/svg" xmlns:xlink="http://www.w3.org/1999/xlink" x="0px" y="0px"
	 viewBox="0 0 144 144" style="enable-background:new 0 0 144 144;" xml:space="preserve">
<style type="text/css">
	.st0{fill:#414042;}
	.st1{fill:#FFFFFF;}
</style>
<g>
	<rect x="4.03" y="46.89" class="st0" width="135.94" height="50.23"/>
	<g>
		<path class="st1" d="M89.93,72.38c0.02-0.04,0.04-0.08,0.07-0.12c0.66-0.04,0.95-0.76,0.97-0.95c0.09-0.81,0.76-1.36,0.9-2.16
			c0.23-1.25,1.13-2.34,1.65-3.53c0.2-0.45,0.24-1.02,0.94-1.17c0.09-0.02,0.19-0.17,0.2-0.26c0.05-0.45,0.39-0.5,0.8-0.53
			c1.07-0.07,2.14-0.12,3.22-0.01c0.9,0.09,1.38,0.49,1.42,1.31c0.01,0.13,0.06,0.26,0.11,0.38c0.35,0.98,0.34,2.07,1.07,2.94
			c0.03,0.03,0.02,0.09,0.01,0.13c-0.23,1.22,0.45,2.29,0.68,3.43c0.19,0.97,0.36,1.95,0.54,2.92c0.24,1.33,0.3,2.72,0.5,4.08
			c0.09,0.66-0.03,1.11-0.64,1.31c-0.89,0.3-1.81,0.38-2.19-0.23c-0.2-0.32-0.54-0.45-0.82-0.66c-0.05-0.66-0.47-0.79-1.14-0.77
			c-1.71,0.04-3.43,0.03-5.15,0c-0.55-0.01-0.8,0.16-0.94,0.62c-0.15,0.47-0.39,0.91-0.59,1.36c-0.39,0.41-0.88,0.6-1.5,0.55
			c-0.25-0.02-0.62-0.16-0.76,0.22c-0.5,0-1,0-1.49,0c-0.09-0.32-0.39-0.24-0.62-0.22c-0.65,0.07-1.01-0.11-0.92-0.75l-0.01-0.04
			l0.04-0.02c0.75-0.06,0.44-0.5,0.38-0.85l0.04-0.01c0,0-0.04,0-0.04,0c0.28-0.08,0.43-0.22,0.23-0.48
			c0.04-0.09,0.09-0.18,0.13-0.28c0.39-0.18,0.7-0.39,0.37-0.82c0.02-0.04,0.05-0.08,0.07-0.11c0.14-0.06,0.17-0.17,0.14-0.29
			c0,0,0,0,0,0c0.09-0.02,0.22-0.03,0.25-0.08c0.06-0.08-0.04-0.15-0.13-0.19c0.02-0.04,0.04-0.08,0.06-0.12
			c0.65-0.1,0.41-0.54,0.42-0.88l-0.01-0.03l0.03-0.02c0.09-0.06,0.13-0.13,0.1-0.23c0.07-0.15,0.14-0.29,0.21-0.44
			c0.34,0,0.44-0.24,0.55-0.46c0.33-0.71,0.55-1.46,1.01-2.11C90.24,72.6,90.18,72.45,89.93,72.38z M94.05,74.76
			c-0.29,0.1-0.41-0.09-0.53-0.25c-0.27-0.38-0.77-0.47-1.13-0.74c-0.66-0.5-0.81,0.24-1.19,0.4c-0.88,0.37-1.3,1.13-1.85,1.77
			c-0.62,0.73-0.69,1.66-1.06,2.49c-0.25,0.55,0.32,1.16,0.98,1.23c0.86,0.09,1.45-0.29,1.9-0.85c0.28-0.35,0.64-0.54,1.02-0.76
			c0.91-0.53,1.99-0.37,2.91-0.33c1.68,0.08,3.22-0.36,4.81-0.6c0.68-0.1,0.96-0.58,0.95-1.19c0-0.23-0.11-0.4-0.38-0.42
			c-0.52-0.06-1.04-0.11-1.56-0.15c-0.36-0.02-0.72-0.02-0.77,0.43c-0.02,0.17-0.13,0.23-0.31,0.14c-0.68-0.37-1.44-0.3-2.18-0.3
			c-0.43,0-0.73-0.12-0.8-0.54c1.1,0.01,2.2,0.24,3.47-0.14c-0.77,0-1.37,0-1.97,0c0-0.06,0-0.11,0-0.17c0.5-0.02,1-0.04,1.49-0.04
			c0.31,0,0.45-0.04,0.37-0.38c-0.49-2.11-0.95-4.22-1.43-6.33c-0.94,1.97-1.75,3.94-2.53,5.91C94.15,74.2,93.91,74.45,94.05,74.76z
			"/>
		<path class="st1" d="M52.65,73.21c0.15,0.63,0.3,1.26,0.47,2c0.19-0.33,0.32-0.56,0.45-0.8c0.44-0.08,0.71-0.4,0.81-0.72
			c0.33-1.01,0.81-1.96,1.31-2.91c0.22-0.42,0.17-1.04,0.43-1.26c0.69-0.62,1.08-1.27,1.07-2.13c0-0.14,0.08-0.35,0.2-0.42
			c0.67-0.35,0.79-1,1.03-1.55c0.63-1.43,2.43-2.07,3.92-1.33c0.08,0.04,0.21,0.14,0.19,0.18c-0.16,0.51,0.28,1.12-0.28,1.57
			c-0.27,0.21-0.34,0.5-0.48,0.78c-0.28,0.58-0.47,1.19-0.76,1.75c-0.34,0.63-0.55,1.3-0.96,1.91c-0.89,1.33-1.03,2.97-1.98,4.28
			c-0.54,0.74-0.87,1.55-1.14,2.35c-0.36,1.08-0.73,2.14-1.27,3.15c-0.11,0.21-0.31,0.33-0.52,0.35c-0.57,0.04-1.09,0.26-1.64,0.36
			c-2.3,0.41-3.46-0.5-3.92-2.49c-0.05-0.22,0.13-0.41-0.03-0.64c-0.6-0.83-0.59-1.77-0.53-2.71c0.01-0.18,0.11-0.39,0.03-0.52
			c-0.54-0.93-0.49-1.98-0.85-2.95c-0.13-0.34-0.49-0.59-0.46-0.97c0.05-0.7-0.08-1.37-0.3-2.04c-0.32-0.96-0.67-1.91-1.35-2.74
			c-0.26-0.31-0.46-0.72-0.19-1.12c0.24-0.35,0.7-0.61,1.06-0.47c0.48,0.18,0.99,0.27,1.44,0.49c0.51,0.24,1.37,1.34,1.57,1.85
			c0.34,0.89,0.94,1.7,0.9,2.69c0,0.04,0.02,0.09,0.04,0.13c0.49,1.33,1.2,2.6,1.36,4.02c0.01,0.07,0.1,0.14,0.15,0.21
			C52.48,73.41,52.56,73.31,52.65,73.21z"/>
		<path class="st1" d="M80.52,76.05c-0.01-0.14-0.01-0.29-0.02-0.43c0.11-0.12,0.07-0.2-0.09-0.25c-0.15-0.04-0.13-0.16-0.13-0.26
			c0.35-0.55-0.25-0.72-0.54-0.95c-0.93-0.75-2.22-1.06-3.06-1.94c-0.04-0.04-0.13-0.06-0.2-0.08c-0.91-0.27-1.7-0.92-1.97-1.56
			c-0.35-0.81-1.15-1.71-0.42-2.73c0.22-0.31-0.1-0.78,0.17-1.11c0.78-0.96,1.46-1.99,2.62-2.65c0.84-0.47,1.75-0.76,2.73-0.8
			c0.73-0.03,1.49,0.17,2.19,0.06c1.22-0.2,2.3,0.38,3.48,0.34c0.46-0.01,0.73,0.42,0.65,0.77c-0.11,0.46,0.1,1.2-0.62,1.3
			c-1.03,0.15-2.12,0.23-3.15,0.09c-1.15-0.16-2.08-0.01-2.96,0.66c-1.33,1.03-1.3,1.79,0.02,2.88c0.37,0.3,0.96,0.31,1.15,0.68
			c0.26,0.53,0.73,0.6,1.24,0.72c0.53,0.12,1.06,0.26,1.33,0.77c0.08,0.15,0.27,0.27,0.43,0.37c1.03,0.61,1.99,1.25,1.9,2.54
			c-0.01,0.08,0.08,0.17,0.07,0.26c-0.01,0.66,0.31,1.33,0.1,1.98c-0.22,0.67-0.69,1.28-1.11,1.83c-0.75,0.99-1.97,1.58-3.34,1.78
			c-0.27,0.04-0.55,0.05-0.8,0.16c-0.96,0.41-2.01,0.36-3.02,0.49c-1.32,0.17-2.61-0.25-3.87-0.62c-0.5-0.15-1.07-0.33-1.05-0.8
			c0.01-0.47,0.29-1,0.88-1.22c0.83-0.32,1.68-0.42,2.55-0.12c0.29,0.1,0.63,0.2,0.87,0.06c0.44-0.26,0.91-0.26,1.37-0.21
			c1.09,0.12,1.89-0.23,2.57-1C80.84,76.65,80.9,76.39,80.52,76.05z"/>
		<path class="st1" d="M69.12,73.63c-0.03,0.13-0.07,0.25-0.1,0.38c-0.69-0.39-0.55,0.25-0.56,0.43c-0.04,0.68-0.32,1.3-0.45,1.95
			c-0.16,0.81-0.48,1.57-0.66,2.37c-0.13,0.58-0.13,1.32-1,1.57c-0.88,0.26-1.78,0.17-2.66,0.08c-0.4-0.04-0.56-0.43-0.42-0.73
			c0.42-0.89-0.13-1.91,0.49-2.77c0.11-0.15,0.01-0.44-0.03-0.66c-0.03-0.15-0.07-0.29-0.04-0.45c0.29-1.68,0.96-3.27,1.2-4.97
			c0.08-0.56,0.06-1.21,0.4-1.75c0.46-0.74,0.07-1.64,0.57-2.38c0.09-0.13-0.02-0.31-0.22-0.37c0.03-0.08,0.06-0.17,0.08-0.25
			c0.3-0.01,0.36-0.19,0.47-0.42c0.93-1.92,0.23-2,2.79-2c0.07,0,0.15,0,0.22,0c1.45,0,1.75,0.32,1.41,1.58
			c-0.37,1.39-0.49,2.82-0.94,4.21c-0.37,1.14-0.41,2.36-0.86,3.5C68.72,73.2,68.81,73.47,69.12,73.63z"/>
		<path class="st1" d="M52.65,73.21c-0.09,0.1-0.17,0.2-0.26,0.3c-0.05-0.07-0.15-0.14-0.15-0.21c-0.16-1.42-0.86-2.69-1.36-4.02
			c-0.02-0.04-0.04-0.09-0.04-0.13c0.05-0.99-0.55-1.81-0.9-2.69c-0.2-0.51-1.05-1.61-1.57-1.85c-0.45-0.21-0.96-0.31-1.44-0.49
			c-0.36-0.14-0.83,0.12-1.06,0.47c-0.28,0.4-0.07,0.81,0.19,1.12c0.68,0.83,1.03,1.78,1.35,2.74c0.22,0.67,0.36,1.34,0.3,2.04
			c-0.03,0.39,0.34,0.63,0.46,0.97c0.36,0.97,0.3,2.03,0.85,2.95c0.08,0.13-0.02,0.35-0.03,0.52c-0.05,0.94-0.06,1.88,0.53,2.71
			c0.17,0.23-0.02,0.42,0.03,0.64c0.47,1.98,1.63,2.9,3.92,2.49c0.56-0.1,1.07-0.32,1.64-0.36c0.21-0.01,0.41-0.14,0.52-0.35
			c0.54-1.01,0.91-2.07,1.27-3.15c0.27-0.8,0.61-1.61,1.14-2.35c0.94-1.31,1.08-2.94,1.98-4.28c0.41-0.61,0.62-1.28,0.96-1.91
			c0.3-0.56,0.48-1.17,0.76-1.75c0.14-0.28,0.21-0.57,0.48-0.78c0.57-0.45,0.12-1.05,0.28-1.57c0.01-0.04-0.11-0.14-0.19-0.18
			c-1.49-0.75-3.29-0.11-3.92,1.33c-0.24,0.55-0.36,1.2-1.03,1.55c-0.12,0.06-0.2,0.27-0.2,0.42c0.01,0.87-0.37,1.51-1.07,2.13
			c-0.25,0.23-0.21,0.84-0.43,1.26c-0.5,0.94-0.98,1.89-1.31,2.91c-0.1,0.32-0.37,0.63-0.81,0.72c1.07-2.48,2.14-4.96,3.21-7.44
			c0.52-1.21,1.08-2.41,1.58-3.63c0.18-0.44,0.43-0.56,0.93-0.55c1.59,0.03,3.18,0.01,4.87,0.01c-0.86,1.85-1.67,3.6-2.48,5.35
			c-1.94,4.17-3.89,8.34-5.81,12.52c-0.2,0.44-0.45,0.6-0.98,0.59c-1.4-0.04-2.8-0.04-4.2,0c-0.55,0.02-0.74-0.17-0.85-0.61
			c-0.73-2.87-1.59-5.71-2.38-8.56c-0.53-1.94-1.08-3.88-1.71-5.8c-0.23-0.69-0.67-1.17-1.4-1.49c-1.42-0.63-2.93-1.01-4.45-1.38
			c-0.21-0.05-0.55,0.02-0.49-0.36c0.05-0.34,0.33-0.28,0.57-0.28c2.83,0,5.65-0.01,8.48,0.02c1.23,0.01,2.15,0.64,2.38,1.7
			C51.48,67.4,52.05,70.31,52.65,73.21z M40.27,62.88c-0.01,0.02-0.02,0.04-0.03,0.06c2.68,0,5.35,0,8.03,0c0-0.02,0-0.04,0-0.06
			C45.6,62.88,42.93,62.88,40.27,62.88z"/>
		<path class="st1" d="M80.52,76.05c0.38,0.35,0.32,0.61-0.03,1.01c-0.68,0.78-1.48,1.12-2.57,1c-0.46-0.05-0.93-0.04-1.37,0.21
			c-0.24,0.14-0.58,0.04-0.87-0.06c-0.86-0.3-1.72-0.2-2.55,0.12c-0.58,0.22-0.86,0.75-0.88,1.22c-0.01,0.47,0.55,0.65,1.05,0.8
			c1.26,0.37,2.55,0.79,3.87,0.62c1-0.13,2.06-0.08,3.02-0.49c0.25-0.1,0.53-0.12,0.8-0.16c1.37-0.2,2.59-0.79,3.34-1.78
			c0.41-0.55,0.89-1.16,1.11-1.83c0.21-0.65-0.11-1.31-0.1-1.98c0-0.09-0.08-0.17-0.07-0.26c0.1-1.29-0.87-1.93-1.9-2.54
			c-0.16-0.1-0.35-0.22-0.43-0.37c-0.27-0.51-0.8-0.65-1.33-0.77c-0.51-0.12-0.98-0.19-1.24-0.72c-0.19-0.37-0.78-0.38-1.15-0.68
			c-1.32-1.09-1.35-1.85-0.02-2.88c0.88-0.68,1.81-0.82,2.96-0.66c1.02,0.14,2.12,0.06,3.15-0.09c0.72-0.1,0.51-0.84,0.62-1.3
			c0.08-0.35-0.19-0.78-0.65-0.77c-1.18,0.04-2.26-0.54-3.48-0.34c-0.7,0.12-1.46-0.08-2.19-0.06c-0.98,0.03-1.89,0.33-2.73,0.8
			c-1.16,0.65-1.85,1.69-2.62,2.65c-0.27,0.33,0.05,0.8-0.17,1.11c-0.73,1.02,0.07,1.93,0.42,2.73c0.28,0.64,1.06,1.29,1.97,1.56
			c0.07,0.02,0.16,0.03,0.2,0.08c0.84,0.88,2.13,1.18,3.06,1.94c0.28,0.23,0.88,0.4,0.54,0.95c-0.62-0.6-1.39-1.01-2.2-1.37
			c-0.99-0.44-1.95-0.91-2.81-1.53c-2.52-1.85-2.83-4.78-0.74-7.03c1.44-1.55,3.38-2.26,5.53-2.57c2.16-0.31,4.28-0.11,6.37,0.49
			c0.45,0.13,0.65,0.25,0.5,0.74c-0.28,0.93-0.47,1.88-0.68,2.82c-0.09,0.4-0.19,0.57-0.71,0.36c-1.35-0.53-2.77-0.73-4.25-0.66
			c-0.68,0.03-1.34,0.16-1.91,0.52c-0.9,0.56-0.96,1.36-0.16,2.03c0.46,0.39,1.02,0.64,1.57,0.91c0.83,0.42,1.67,0.82,2.47,1.26
			c4.35,2.41,2.97,6.96,0.28,8.72c-2.06,1.35-4.4,1.75-6.87,1.73c-1.71-0.01-3.38-0.25-5.02-0.72c-0.5-0.14-0.73-0.3-0.56-0.85
			c0.29-0.92,0.47-1.88,0.67-2.82c0.1-0.46,0.19-0.65,0.79-0.38c1.66,0.76,3.46,1.04,5.31,0.88C79.04,77.55,80.15,77.26,80.52,76.05
			z"/>
		<path class="st1" d="M99.37,79.26c0.29,0.21,0.63,0.34,0.82,0.66c0.38,0.61,1.29,0.52,2.19,0.23c0.6-0.2,0.73-0.65,0.64-1.31
			c-0.19-1.35-0.25-2.75-0.5-4.08c-0.18-0.96-0.35-1.95-0.54-2.92c-0.23-1.14-0.91-2.22-0.68-3.43c0.01-0.04,0.01-0.1-0.01-0.13
			c-0.73-0.87-0.71-1.96-1.07-2.94c-0.05-0.13-0.1-0.25-0.11-0.38c-0.04-0.82-0.53-1.21-1.42-1.31c-1.08-0.11-2.15-0.06-3.22,0.01
			c-0.4,0.03-0.75,0.08-0.8,0.53c-0.01,0.1-0.11,0.25-0.2,0.26c-0.7,0.15-0.74,0.72-0.94,1.17c-0.53,1.19-1.43,2.27-1.65,3.53
			c-0.14,0.8-0.81,1.35-0.9,2.16c-0.02,0.2-0.31,0.92-0.97,0.95c1.27-2.75,2.52-5.5,3.83-8.24c0.36-0.75,1.09-1.16,2.03-1.18
			c1.4-0.02,2.8,0.01,4.2-0.02c0.49-0.01,0.49,0.24,0.56,0.53c1.12,4.98,2.25,9.96,3.38,14.94c0.18,0.81,0.36,1.62,0.55,2.43
			c0.09,0.36,0.1,0.57-0.45,0.55c-1.27-0.04-2.55-0.02-3.83-0.01c-0.32,0-0.52-0.05-0.58-0.37C99.59,80.36,99.48,79.81,99.37,79.26z
			"/>
		<path class="st1" d="M65.63,66.33c0.2,0.06,0.31,0.23,0.22,0.37c-0.5,0.74-0.11,1.63-0.57,2.38c-0.33,0.54-0.32,1.18-0.4,1.75
			c-0.23,1.7-0.91,3.29-1.2,4.97c-0.03,0.17,0.01,0.3,0.04,0.45c0.04,0.22,0.14,0.5,0.03,0.66c-0.61,0.87-0.07,1.88-0.49,2.77
			c-0.14,0.31,0.03,0.69,0.42,0.73c0.88,0.09,1.78,0.18,2.66-0.08c0.86-0.25,0.87-0.99,1-1.57c0.18-0.8,0.5-1.56,0.66-2.37
			c0.13-0.65,0.4-1.27,0.45-1.95c0.01-0.18-0.13-0.83,0.56-0.43c-0.54,2.3-1.08,4.6-1.61,6.9c-0.07,0.29-0.22,0.35-0.51,0.35
			c-1.45-0.01-2.9-0.02-4.35,0c-0.58,0.01-0.43-0.29-0.36-0.56c0.85-3.59,1.71-7.17,2.57-10.76C65.04,68.73,65.34,67.53,65.63,66.33
			z"/>
		<path class="st1" d="M69.12,73.63c-0.31-0.16-0.4-0.43-0.3-0.68c0.45-1.14,0.49-2.36,0.86-3.5c0.45-1.39,0.56-2.82,0.94-4.21
			c0.34-1.26,0.04-1.57-1.41-1.58c-0.07,0-0.15,0-0.22,0c-2.56,0-1.86,0.08-2.79,2c-0.11,0.23-0.17,0.41-0.47,0.42
			c0.21-0.98,0.44-1.97,0.64-2.96c0.06-0.3,0.27-0.32,0.54-0.31c1.45,0.01,2.9,0.01,4.34,0.01c0.33,0,0.49,0.03,0.39,0.41
			C70.78,66.69,69.95,70.16,69.12,73.63z"/>
		<path class="st1" d="M89.93,72.38c0.25,0.07,0.31,0.22,0.18,0.41c-0.47,0.66-0.68,1.41-1.01,2.11c-0.11,0.22-0.2,0.46-0.55,0.46
			C88.94,74.34,89.41,73.35,89.93,72.38z"/>
		<path class="st1" d="M86.26,80.26c-0.09,0.64,0.27,0.82,0.92,0.75c0.22-0.02,0.52-0.1,0.62,0.22c-0.64,0-1.28,0-1.95,0
			C85.88,80.86,86.04,80.55,86.26,80.26z"/>
		<path class="st1" d="M89.29,81.23c0.14-0.38,0.5-0.24,0.76-0.22c0.62,0.05,1.1-0.14,1.5-0.55c-0.04,0.61-0.36,0.9-1.08,0.8
			C90.08,81.22,89.68,81.24,89.29,81.23z"/>
		<path class="st1" d="M86.67,79.35c0.06,0.35,0.37,0.79-0.38,0.85C86.33,79.88,86.5,79.62,86.67,79.35z"/>
		<path class="st1" d="M87.41,77.76c0.33,0.44,0.02,0.65-0.37,0.82C87.08,78.28,87.25,78.02,87.41,77.76z"/>
		<path class="st1" d="M88.21,76.09c-0.01,0.35,0.23,0.78-0.42,0.88C87.86,76.65,88,76.35,88.21,76.09z"/>
		<path class="st1" d="M86.9,78.86c0.2,0.27,0.04,0.4-0.23,0.48C86.75,79.18,86.82,79.02,86.9,78.86z"/>
		<path class="st1" d="M87.73,77.09c0.09,0.04,0.19,0.1,0.13,0.19c-0.03,0.05-0.16,0.05-0.25,0.08
			C87.65,77.26,87.69,77.18,87.73,77.09z"/>
		<path class="st1" d="M87.61,77.35c0.03,0.13,0,0.23-0.14,0.29C87.47,77.53,87.49,77.42,87.61,77.35z"/>
		<path class="st1" d="M80.41,75.37c0.16,0.04,0.2,0.12,0.09,0.25C80.47,75.53,80.44,75.45,80.41,75.37z"/>
		<path class="st1" d="M88.34,75.8c0.03,0.1-0.01,0.18-0.1,0.23C88.27,75.95,88.3,75.88,88.34,75.8z"/>
		<path class="st1" d="M94.85,75.09c0.07,0.42,0.37,0.54,0.8,0.54c0.74,0,1.5-0.07,2.18,0.3c0.18,0.1,0.29,0.03,0.31-0.14
			c0.05-0.45,0.41-0.45,0.77-0.43c0.52,0.04,1.04,0.09,1.56,0.15c0.27,0.03,0.38,0.2,0.38,0.42c0.01,0.61-0.27,1.09-0.95,1.19
			c-1.59,0.24-3.13,0.68-4.81,0.6c-0.92-0.05-2-0.2-2.91,0.33c-0.38,0.22-0.74,0.41-1.02,0.76c-0.45,0.57-1.04,0.95-1.9,0.85
			c-0.66-0.07-1.22-0.68-0.98-1.23c0.37-0.83,0.45-1.76,1.06-2.49c0.55-0.65,0.97-1.41,1.85-1.77c0.39-0.16,0.54-0.9,1.19-0.4
			c0.36,0.27,0.86,0.36,1.13,0.74c0.12,0.17,0.24,0.36,0.53,0.25c0.77-0.03,1.53-0.06,2.29,0.02c0,0.06,0,0.11,0,0.17
			c-0.69,0-1.38,0-2.07,0c0,0.05,0,0.09,0,0.14C94.47,75.09,94.66,75.09,94.85,75.09z"/>
		<path class="st1" d="M94.85,75.09c-0.19,0-0.38,0-0.57,0c0-0.05,0-0.09,0-0.14c0.69,0,1.38,0,2.07,0c0.6,0,1.19,0,1.97,0
			C97.05,75.33,95.94,75.1,94.85,75.09z"/>
		<path class="st1" d="M40.27,62.88c2.67,0,5.33,0,8,0c0,0.02,0,0.04,0,0.06c-2.68,0-5.35,0-8.03,0
			C40.24,62.92,40.26,62.9,40.27,62.88z"/>
	</g>
</g>
</svg>
