<?xml version="1.0" encoding="utf-8"?>
<!-- Generator: Adobe Illustrator 25.0.0, SVG Export Plug-In . SVG Version: 6.00 Build 0)  -->
<svg version="1.1" id="Layer_1" xmlns="http://www.w3.org/2000/svg" xmlns:xlink="http://www.w3.org/1999/xlink" x="0px" y="0px"
	 viewBox="0 0 144 144" style="enable-background:new 0 0 144 144;" xml:space="preserve">
<style type="text/css">
	.st0{fill-rule:evenodd;clip-rule:evenodd;}
</style>
<g>
	<g>
		<path class="st0" d="M15.37,49.75h10.81l26.47-29.64c2.35-2.64,6.43-2.87,9.06-0.52l0,0c2.64,2.35,2.87,6.43,0.52,9.07L43.4,49.75
			h57.68L82.25,28.66c-2.35-2.64-2.12-6.72,0.52-9.07l0,0c2.64-2.35,6.71-2.12,9.07,0.52l26.46,29.64h10.34h0.14h9.71
			c2.18,0,3.95,1.78,3.95,3.95v11.15c0,2.18-1.78,3.95-3.95,3.95h-8.4l-4.32,54.48c-0.11,1.5-1.24,2.74-2.74,2.74H20.99
			c-1.5,0-2.62-1.24-2.74-2.74l-4.32-54.48h-8.4c-2.18,0-3.95-1.78-3.95-3.95V53.7c0-2.18,1.78-3.95,3.95-3.95h9.71L15.37,49.75
			L15.37,49.75z M90.6,70.95h12.51v36.14H90.6V70.95L90.6,70.95z M66.27,70.95h12.49v36.14H66.27L66.27,70.95L66.27,70.95z
			 M41.95,70.95h12.51v36.14H41.95V70.95L41.95,70.95z"/>
	</g>
</g>
</svg>
