<?xml version="1.0" encoding="utf-8"?>
<!-- Generator: Adobe Illustrator 25.0.0, SVG Export Plug-In . SVG Version: 6.00 Build 0)  -->
<svg version="1.1" id="Layer_1" xmlns="http://www.w3.org/2000/svg" xmlns:xlink="http://www.w3.org/1999/xlink" x="0px" y="0px"
	 viewBox="0 0 144 144" style="enable-background:new 0 0 144 144;" xml:space="preserve">
<style type="text/css">
	.st0{fill:#A7A9AC;}
</style>
<g>
	<g>
		<path class="st0" d="M68.22,8.26c2.43,0,4.86,0,7.29,0c0.04,0.14,0.16,0.12,0.26,0.12c3.49,0.18,6.94,0.66,10.34,1.45
			C99.77,13,111.23,19.88,120.36,30.5c8.95,10.41,13.98,22.52,15.16,36.21c0.62,7.21,0.03,14.33-1.81,21.33
			c-3.42,13.04-10.25,23.99-20.57,32.64c-13.7,11.48-29.56,16.33-47.34,14.78c-8.21-0.72-15.98-3.1-23.3-6.92
			c-19.33-10.08-32.2-29.4-34.03-51.13c-0.05-0.58,0.04-1.2-0.23-1.75c0-2.47,0-4.94,0-7.42c0.22-0.1,0.12-0.3,0.13-0.45
			c0.28-3.98,0.88-7.92,1.9-11.78c3.46-13.12,10.37-24.09,20.75-32.82c10.27-8.63,22.14-13.5,35.52-14.7
			C67.1,8.44,67.69,8.55,68.22,8.26z M72.04,16.2c-30.8-0.03-55.8,24.92-55.86,55.74c-0.05,30.83,24.92,55.85,55.78,55.89
			c30.8,0.04,55.79-24.91,55.86-55.75C127.88,41.26,102.89,16.23,72.04,16.2z"/>
		<path class="st0" d="M71.51,102.98c-10.7-0.15-20.35-3.88-28.79-10.87c-1.09-0.9-2.14-1.84-3.12-2.85c-0.98-1-1.48-2.2-1.23-3.6
			c0.33-1.84,2.02-2.71,3.75-1.99c0.62,0.26,1.08,0.71,1.55,1.16c4.78,4.58,10.25,8.05,16.6,9.95c12.41,3.72,23.91,1.63,34.54-5.65
			c1.95-1.34,3.75-2.87,5.43-4.54c0.55-0.54,1.16-0.98,1.94-1.12c1.84-0.33,3.3,1.03,3.18,2.96c-0.07,1.08-0.48,2.03-1.25,2.78
			c-6.83,6.71-14.84,11.2-24.3,12.99C77.17,102.72,74.5,102.94,71.51,102.98z"/>
		<path class="st0" d="M98.86,68.36c-4.38,0-7.98-3.6-7.99-7.98c-0.01-4.41,3.61-8.02,8.02-8.01c4.37,0.01,7.97,3.62,7.96,8.01
			C106.84,64.77,103.24,68.36,98.86,68.36z"/>
		<path class="st0" d="M52.8,60.34c0.03,4.38-3.56,8.01-7.93,8.02c-4.4,0.02-8-3.54-8.02-7.93c-0.03-4.41,3.52-8.03,7.89-8.06
			C49.17,52.35,52.77,55.9,52.8,60.34z"/>
	</g>
</g>
</svg>
