<?xml version="1.0" encoding="utf-8"?>
<!-- Generator: Adobe Illustrator 25.0.0, SVG Export Plug-In . SVG Version: 6.00 Build 0)  -->
<svg version="1.1" id="Layer_1" xmlns="http://www.w3.org/2000/svg" xmlns:xlink="http://www.w3.org/1999/xlink" x="0px" y="0px"
	 viewBox="0 0 144 144" style="enable-background:new 0 0 144 144;" xml:space="preserve">
<style type="text/css">
	.st0{fill:#A7A9AC;}
</style>
<g>
	<g>
		<path class="st0" d="M71.72,5.91h-0.48c-20.43,0.33-37.06,17.2-37.06,37.63c0,23.28,23.19,46.8,34.92,57.25c0,0,0.05,0,0.05,0.05
			c0.86,0.76,1.62,1.42,2.33,2.04c10.6-9.07,37.3-34.35,37.3-59.35C108.78,23.11,92.15,6.24,71.72,5.91z M71.81,59.27
			c-10.74,0-19.48-8.74-19.48-19.48c0-10.79,8.74-19.53,19.48-19.53c10.79,0,19.53,8.74,19.53,19.53
			C91.34,50.52,82.6,59.27,71.81,59.27z"/>
		<path class="st0" d="M71.72,5.91h-0.48c-20.43,0.33-37.06,17.2-37.06,37.63c0,23.28,23.19,46.8,34.92,57.25c0,0,0.05,0,0.05,0.05
			c0.86,0.76,1.62,1.42,2.33,2.04c10.6-9.07,37.3-34.35,37.3-59.35C108.78,23.11,92.15,6.24,71.72,5.91z M71.81,59.27
			c-10.74,0-19.48-8.74-19.48-19.48c0-10.79,8.74-19.53,19.48-19.53c10.79,0,19.53,8.74,19.53,19.53
			C91.34,50.52,82.6,59.27,71.81,59.27z M90.58,102.31c-2.8,2.8-5.46,5.27-7.79,7.36c16.25,1.66,25.8,6.75,25.8,9.74
			c0,3.61-13.87,10.26-36.59,10.26c-22.71,0-36.59-6.65-36.59-10.26c0-2.95,9.17-7.89,24.85-9.65c-2.33-2.04-4.94-4.51-7.74-7.32
			c-14.35,2.66-25.52,8.36-25.52,16.96c0,12.26,22.66,18.67,45,18.67c22.38,0,45-6.41,45-18.67
			C117,110.63,105.41,104.88,90.58,102.31z"/>
		<path class="st0" d="M116.99,119.4c0,12.26-22.62,18.67-45,18.67c-22.33,0-45-6.41-45-18.67c0-8.6,11.17-14.3,25.52-16.96
			c2.8,2.8,5.42,5.27,7.74,7.32c-15.68,1.76-24.85,6.7-24.85,9.65c0,3.61,13.87,10.26,36.59,10.26s36.59-6.65,36.59-10.26
			c0-2.99-9.55-8.08-25.8-9.74c2.33-2.09,4.99-4.56,7.79-7.36C105.4,104.87,116.99,110.61,116.99,119.4z"/>
	</g>
</g>
</svg>
