<?xml version="1.0" encoding="utf-8"?>
<!-- Generator: Adobe Illustrator 25.0.0, SVG Export Plug-In . SVG Version: 6.00 Build 0)  -->
<svg version="1.1" id="Layer_1" xmlns="http://www.w3.org/2000/svg" xmlns:xlink="http://www.w3.org/1999/xlink" x="0px" y="0px"
	 viewBox="0 0 144 144" style="enable-background:new 0 0 144 144;" xml:space="preserve">
<style type="text/css">
	.st0{fill:#A7A9AC;}
</style>
<g>
	<g>
		<path class="st0" d="M98.69,1.71H45.31c-7.62,0-13.81,6.2-13.81,13.81v112.94c0,7.62,6.2,13.81,13.81,13.81h53.37
			c7.62,0,13.81-6.2,13.81-13.81V15.53C112.5,7.91,106.3,1.71,98.69,1.71z M72.03,129.28c-4.62,0-8.33-3.76-8.33-8.33
			s3.71-8.33,8.33-8.33c4.57,0,8.28,3.76,8.28,8.33S76.6,129.28,72.03,129.28z M102.34,108.72H41.66V15.53
			c0-2.03,1.68-3.66,3.66-3.66h53.37c2.03,0,3.66,1.63,3.66,3.66V108.72z"/>
	</g>
</g>
</svg>
