<?xml version="1.0" encoding="utf-8"?>
<!-- Generator: Adobe Illustrator 25.0.0, SVG Export Plug-In . SVG Version: 6.00 Build 0)  -->
<svg version="1.1" id="Layer_1" xmlns="http://www.w3.org/2000/svg" xmlns:xlink="http://www.w3.org/1999/xlink" x="0px" y="0px"
	 viewBox="0 0 144 144" style="enable-background:new 0 0 144 144;" xml:space="preserve">
<style type="text/css">
	.st0{fill:#A7A9AC;}
</style>
<g>
	<g>
		<path class="st0" d="M74.26,78.01c-1.43,0.02-2.69,1.21-2.78,2.68c-0.13,2.33-0.08,4.64,0.11,6.94c2.01-1.96,3.88-4.07,5.58-6.32
			c0.01-0.21,0-0.41,0-0.62C77.14,79.14,75.81,77.99,74.26,78.01z M74.26,78.01c-1.43,0.02-2.69,1.21-2.78,2.68
			c-0.13,2.33-0.08,4.64,0.11,6.94c2.01-1.96,3.88-4.07,5.58-6.32c0.01-0.21,0-0.41,0-0.62C77.14,79.14,75.81,77.99,74.26,78.01z
			 M128.35,60.88c-0.25-6.87-0.95-13.7-2-20.52c-0.26-1.71-0.78-3.07-2.56-3.66c-0.51,0.04-1.03,0.07-1.55,0.12
			c-0.81,0.67-1.6,1.36-2.49,1.92c-3.15,2-6.61,3.33-10.1,4.55c-5.5,1.92-11.12,3.41-16.79,4.69c-2.38,0.55-4.76,1.07-7.16,1.55
			c0.76,0.93,1.53,1.86,2.27,2.81c0.56,0.72,1.11,1.45,1.63,2.19c1.79-0.38,3.57-0.75,5.36-1.16c0.48-0.1,0.95-0.22,1.43-0.33
			c6.31-1.47,12.56-3.24,18.6-5.62c0.43-0.18,0.85-0.46,1.37-0.43c-3.65,9.4-7.96,18.43-13.21,27.15c-0.41,0.69-0.83,1.37-1.25,2.06
			c-0.25-0.85-0.46-1.53-0.65-2.2c-0.71-2.72-0.92-5.48-0.97-8.29c-0.03-1.71-1.35-2.89-2.96-2.82c-1.21,0.05-2.11,0.72-2.52,1.75
			c0.57,1.68,1.02,3.41,1.36,5.2c0.53,2.87,0.66,5.69,0.4,8.47c0.39,1.09,0.83,2.16,1.33,3.23c0.19,0.41,0.11,0.66-0.13,0.99
			c-1.08,1.54-2.17,3.06-3.29,4.55c-0.06,0.19-0.15,0.39-0.22,0.57c-2.67,6.53-6.97,11.86-12.21,16.48
			c-4.47,3.94-9.4,7.09-14.67,9.7c-1.1,0.77-2.21,1.53-3.35,2.27c-0.43,0.28-0.62,0.27-0.89-0.21c-0.02-0.03-0.03-0.05-0.04-0.08
			c-0.44,0.19-0.87,0.38-1.31,0.55c-0.58,0.24-0.75,0.12-0.95-0.44c-1.79-5.14-3.24-10.38-4.36-15.71
			c-0.01-0.01-0.01-0.02-0.01-0.03c-0.34-1.27-0.65-2.56-0.9-3.88c-0.43-2.26-0.72-4.51-0.81-6.77c-0.4-3.11-0.65-6.22-0.81-9.33
			c-0.21-3.9-0.26-7.79-0.19-11.69c-2.1,3.66-3.51,7.76-4.26,12.3c-1.22,7.43-0.37,14.73,1.71,21.91
			c1.62,5.59,3.96,10.88,6.92,15.89c0.38,0.63,0.27,0.87-0.34,1.19c-1.49,0.77-3,1.54-4.52,2.27c0.81,0.3,1.64,0.61,2.47,0.89
			c0.77,0.27,1.19,0.7,1.5,1.45c0.24,0.59,0.49,1.17,0.74,1.74c1.35-0.68,2.67-1.4,3.98-2.15c0.63-0.36,1.16-0.43,1.85-0.2
			c0.07,0.02,0.14,0.05,0.21,0.06c2.49,0.85,5.01,1.57,7.56,2.15c7.91,1.83,15.87,2.67,23.93,1.08c8.91-1.77,16.04-6.34,21.42-13.64
			c4.58-6.22,7.22-13.28,8.93-20.72C128.29,82.26,128.76,71.61,128.35,60.88z M121,88.02c-1.34,7.27-3.54,14.25-7.63,20.52
			c-5.79,8.85-14.11,13.09-24.52,13.63c-5.07,0.26-10.04-0.43-14.97-1.47c-1.24-0.26-2.47-0.61-3.78-0.96
			c-0.27-0.07-0.54-0.15-0.83-0.22c3.97-2.73,7.64-5.55,11.11-8.6c0.31-0.27,0.64-0.24,0.97-0.2c0.92,0.1,1.83,0.17,2.74,0.21
			c4.5,0.18,8.94-0.43,13.32-1.63c2.35-0.66,4.65-1.47,6.88-2.47c1.25-0.55,1.94-1.86,1.71-3.08c-0.27-1.39-1.34-2.33-2.76-2.41
			c-0.68-0.03-1.28,0.25-1.89,0.5c-3.44,1.46-6.98,2.48-10.65,3c-0.71,0.1-1.43,0.19-2.16,0.25c-0.61,0.06-1.23,0.18-1.94,0.01
			c1.34-1.42,2.64-2.76,3.9-4.14c3.84-4.22,7.4-8.66,10.7-13.31c0.48-0.68,0.96-1.37,1.43-2.06c0.29-0.43,0.61-0.6,1.12-0.62
			c2.21-0.06,4.41-0.38,6.57-0.89c1.68-0.39,3.34-0.87,4.92-1.56c1.49-0.64,2.14-2.13,1.63-3.61c-0.49-1.43-2.03-2.19-3.57-1.75
			c-0.32,0.09-0.64,0.24-0.96,0.37c-1.67,0.61-3.38,1.02-5.32,1.37c5.82-9.5,10.64-19.27,14.76-29.44c0.02,0.16,0.02,0.31,0.04,0.48
			c0.49,5.47,0.89,10.95,0.91,16.45C122.76,73.66,122.31,80.87,121,88.02z M77.17,81.31c0.01-0.21,0-0.41,0-0.62
			c-0.03-1.56-1.36-2.71-2.91-2.68c-1.43,0.02-2.69,1.21-2.78,2.68c-0.13,2.33-0.08,4.64,0.11,6.94
			C73.6,85.67,75.47,83.56,77.17,81.31z M74.26,78.01c-1.43,0.02-2.69,1.21-2.78,2.68c-0.13,2.33-0.08,4.64,0.11,6.94
			c2.01-1.96,3.88-4.07,5.58-6.32c0.01-0.21,0-0.41,0-0.62C77.14,79.14,75.81,77.99,74.26,78.01z M74.26,78.01
			c-1.43,0.02-2.69,1.21-2.78,2.68c-0.13,2.33-0.08,4.64,0.11,6.94c2.01-1.96,3.88-4.07,5.58-6.32c0.01-0.21,0-0.41,0-0.62
			C77.14,79.14,75.81,77.99,74.26,78.01z M74.26,78.01c-1.43,0.02-2.69,1.21-2.78,2.68c-0.13,2.33-0.08,4.64,0.11,6.94
			c2.01-1.96,3.88-4.07,5.58-6.32c0.01-0.21,0-0.41,0-0.62C77.14,79.14,75.81,77.99,74.26,78.01z"/>
		<path class="st0" d="M103.17,74.15c-0.15-4.01-0.95-8.06-2.43-12.17c-1.14-3.17-2.6-6.12-4.32-8.93
			c-1.09-1.74-2.27-3.43-3.53-5.06c-0.71-0.92-1.45-1.82-2.21-2.7c-7.16-8.26-14.22-16.58-20.18-25.76
			c-2.27-3.51-4.43-7.08-5.86-11.03C64.22,7.39,64,6.22,63.74,5.07c-0.44-0.39-0.87-0.78-1.31-1.17c-1.97-0.71-3.38,0.15-4.81,1.49
			C52,10.73,46.66,16.35,41.68,22.31c-7.76,9.28-14.7,19.09-19.79,30.13c-3.61,7.82-6.14,15.94-6.35,24.64
			c-0.25,10.23,2.96,19.22,9.67,26.96c6.09,6.99,13.76,11.73,22.07,15.56c1.96,0.91,3.97,1.74,6,2.51c0.81,0.3,1.64,0.61,2.47,0.89
			c0.77,0.27,1.19,0.7,1.5,1.45c0.24,0.59,0.49,1.17,0.74,1.74c1.82,4.21,3.92,8.26,6.24,12.21c0.33,0.56,0.69,1.09,1.27,1.44
			c1.26,0.77,2.72,0.68,3.86-0.29c1.04-0.88,1.43-2.43,0.79-3.72c-0.71-1.42-1.54-2.77-2.3-4.16c-1.39-2.54-2.62-5.15-3.83-7.77
			c-0.05-0.1-0.1-0.22-0.16-0.32c-0.32-0.71-0.25-1,0.51-1.3c1.95-0.77,3.86-1.62,5.73-2.55c3.99-1.93,7.79-4.21,11.41-6.84
			c0.88-0.64,1.74-1.3,2.59-1.96c2.36-1.89,4.58-3.91,6.61-6.09c2.87-3.08,5.4-6.49,7.46-10.29c1.23-2.28,2.25-4.58,3.03-6.89
			C102.7,83.22,103.37,78.71,103.17,74.15z M48.91,113.22c-5.12-2.48-10.02-5.3-14.35-9.02c-8.9-7.67-13.39-17.2-12.43-29.08
			c0.68-8.41,3.53-16.14,7.36-23.55c3.77-7.27,8.35-14.02,13.39-20.47c3.81-4.89,7.96-9.5,12.17-14.04
			c0.13-0.13,0.24-0.26,0.37-0.39c-3.34,11.91-5.81,23.94-7.17,36.42c-1.49-1.64-2.73-3.2-3.79-4.89c-0.21-0.33-0.39-0.68-0.62-0.99
			c-1.07-1.45-2.97-1.84-4.39-0.91c-1.48,0.97-1.94,2.76-1.06,4.36c0.94,1.7,2.09,3.27,3.31,4.78c1.58,1.95,3.31,3.74,5.24,5.33
			c0.45,0.38,0.61,0.74,0.57,1.32c-0.43,7.36-0.39,14.73,0.2,22.08c0.17,2.09,0.4,4.18,0.62,6.38c-0.75-0.36-1.22-0.89-1.72-1.36
			c-3.69-3.43-6.73-7.35-9.18-11.74c-0.37-0.65-0.7-1.32-1.34-1.77c-1.32-0.91-2.92-0.8-4.13,0.25c-1.04,0.94-1.34,2.57-0.61,3.93
			c1.31,2.42,2.79,4.74,4.44,6.95c3.7,4.93,8.05,9.14,13.33,12.36c0.32,0.2,0.64,0.4,0.72,0.85c1,5.13,2.32,10.17,3.98,15.34
			C52.08,114.6,50.47,113.98,48.91,113.22z M82.06,104.15c-4.47,3.94-9.4,7.09-14.67,9.7c-1.41,0.69-2.83,1.36-4.28,1.97
			c-0.44,0.19-0.87,0.38-1.31,0.55c-0.58,0.24-0.75,0.12-0.95-0.44c-1.79-5.14-3.24-10.38-4.36-15.71
			c-0.01-0.01-0.01-0.02-0.01-0.03c-0.03-0.15-0.06-0.3-0.09-0.45c-0.11-0.54,0.02-0.81,0.49-1.08c4.13-2.28,7.95-5,11.51-8.08
			c1.1-0.95,2.16-1.93,3.2-2.96c2.01-1.96,3.88-4.07,5.58-6.32c0.53-0.68,1.03-1.37,1.53-2.08c0.95-1.37,0.64-3.29-0.63-4.3
			c-1.37-1.09-3.34-0.98-4.45,0.39c-1.72,2.14-3.34,4.38-5.25,6.37c-3.79,3.96-8.07,7.29-12.69,10.22
			c-0.15,0.09-0.32,0.17-0.54,0.27c-0.13-0.88-0.25-1.74-0.36-2.62c-0.4-3.11-0.65-6.22-0.81-9.33c-0.21-3.9-0.26-7.79-0.19-11.69
			c0.04-1.94,0.11-3.89,0.21-5.82c0.02-0.47,0.11-0.74,0.57-0.98c5.49-2.81,10.05-6.73,13.76-11.64c1.17-1.55,1.04-3.38-0.38-4.6
			c-1.38-1.17-3.36-1.03-4.58,0.48c-1.98,2.45-4.08,4.78-6.6,6.71c-0.63,0.49-1.28,0.94-2.1,1.53c1.28-12.36,3.78-24.27,7.28-36.03
			c0.49,0.34,0.66,0.88,0.92,1.33c4.03,6.78,8.75,13.07,13.76,19.16c3,3.65,6.11,7.21,9.11,10.86c0.76,0.93,1.53,1.86,2.27,2.81
			c0.56,0.72,1.11,1.45,1.63,2.19c2.2,3.14,3.97,6.5,5.2,10.1c0.57,1.68,1.02,3.41,1.36,5.2c0.53,2.87,0.66,5.69,0.4,8.47
			c-0.26,2.97-0.96,5.89-2.09,8.77c-0.06,0.19-0.15,0.39-0.22,0.57C91.59,94.19,87.3,99.52,82.06,104.15z"/>
	</g>
</g>
</svg>
