<?xml version="1.0" encoding="utf-8"?>
<!-- Generator: Adobe Illustrator 25.0.0, SVG Export Plug-In . SVG Version: 6.00 Build 0)  -->
<svg version="1.1" id="Layer_1" xmlns="http://www.w3.org/2000/svg" xmlns:xlink="http://www.w3.org/1999/xlink" x="0px" y="0px"
	 viewBox="0 0 144 144" style="enable-background:new 0 0 144 144;" xml:space="preserve">
<style type="text/css">
	.st0{fill-rule:evenodd;clip-rule:evenodd;}
</style>
<g id="XMLID_1_">
	<path id="XMLID_2_" class="st0" d="M133.98,98.68c-3.43-1.68-20.08-9.85-23.19-10.95c-3.11-1.17-5.38-1.68-7.65,1.69
		c-2.27,3.37-8.81,10.95-10.75,13.15c-2.01,2.27-3.95,2.53-7.38,0.84c-3.37-1.69-14.32-5.18-27.27-16.71
		c-10.04-8.87-16.91-19.89-18.85-23.25c-1.94-3.37-0.19-5.18,1.49-6.87c1.55-1.55,3.37-3.95,5.12-5.89c0.46-0.59,0.84-1.1,1.23-1.62
		c0.78-1.23,1.36-2.4,2.14-4.02c1.17-2.27,0.59-4.21-0.26-5.89c-0.84-1.69-7.65-18.27-10.5-25.01c-2.78-6.74-5.63-5.57-7.64-5.57
		c-1.94,0-4.21-0.32-6.48-0.32c-2.27,0-5.96,0.84-9.07,4.21C11.8,15.83,3.06,23.99,3.06,40.57c0,3.89,0.71,7.77,1.75,11.47
		C8.24,63.9,15.62,73.68,16.92,75.36c1.68,2.2,23.45,37.31,57.91,50.85c34.53,13.41,34.53,8.94,40.75,8.36
		c6.22-0.52,20.08-8.1,22.86-16c2.86-7.84,2.86-14.58,2.01-16C139.61,101.21,137.34,100.37,133.98,98.68z"/>
</g>
</svg>
