<?xml version="1.0" encoding="utf-8"?>
<!-- Generator: Adobe Illustrator 25.0.0, SVG Export Plug-In . SVG Version: 6.00 Build 0)  -->
<svg version="1.1" id="Layer_1" xmlns="http://www.w3.org/2000/svg" xmlns:xlink="http://www.w3.org/1999/xlink" x="0px" y="0px"
	 viewBox="0 0 144 144" style="enable-background:new 0 0 144 144;" xml:space="preserve">
<style type="text/css">
	.st0{fill-rule:evenodd;clip-rule:evenodd;fill:#A7A9AC;}
</style>
<g>
	<g>
		<g id="XMLID_15_">
			<path id="XMLID_16_" class="st0" d="M128.13,96.16c-3.11-1.52-18.19-8.92-21-9.91c-2.82-1.06-4.87-1.52-6.92,1.53
				c-2.05,3.05-7.98,9.91-9.74,11.91c-1.82,2.05-3.58,2.29-6.69,0.76c-3.05-1.53-12.97-4.69-24.7-15.14
				C49.98,77.27,43.76,67.3,42,64.25c-1.76-3.05-0.17-4.69,1.35-6.22c1.41-1.41,3.05-3.58,4.63-5.34c0.41-0.53,0.76-1,1.11-1.47
				c0.7-1.11,1.23-2.17,1.94-3.64c1.06-2.05,0.53-3.81-0.23-5.34c-0.76-1.53-6.92-16.54-9.51-22.65c-2.52-6.1-5.1-5.05-6.92-5.05
				c-1.76,0-3.81-0.29-5.87-0.29c-2.05,0-5.4,0.76-8.21,3.81C17.48,21.13,9.56,28.52,9.56,43.54c0,3.52,0.65,7.04,1.58,10.39
				c3.11,10.73,9.8,19.59,10.97,21.12c1.52,1.99,21.24,33.79,52.45,46.05c31.27,12.14,31.27,8.1,36.9,7.57
				c5.63-0.47,18.19-7.33,20.71-14.49c2.59-7.1,2.59-13.2,1.82-14.49C133.23,98.45,131.18,97.69,128.13,96.16z"/>
		</g>
	</g>
</g>
</svg>
