<?xml version="1.0" encoding="utf-8"?>
<!-- Generator: Adobe Illustrator 25.0.0, SVG Export Plug-In . SVG Version: 6.00 Build 0)  -->
<svg version="1.1" id="Layer_1" xmlns="http://www.w3.org/2000/svg" xmlns:xlink="http://www.w3.org/1999/xlink" x="0px" y="0px"
	 viewBox="0 0 144 144" style="enable-background:new 0 0 144 144;" xml:space="preserve">
<style type="text/css">
	.st0{fill:#030303;}
</style>
<path class="st0" d="M54.46,82.94c-18.54-9.23-26.62-28.17-22.78-45.9c4.01-18.52,19.17-31.3,38.08-32.59
	c17.13-1.17,34.37,9.88,40.45,25.83c2.51,6.59,3.42,13.33,2.61,20.32c-0.81,7.01-3.37,13.33-7.45,19.06
	c-4.09,5.73-9.43,10-15.96,13.29c5.49,1.79,10.42,3.98,14.92,7.04c15.59,10.58,24.59,25.16,26.64,43.96
	c0.06,0.53,0.15,1.06,0.21,1.59c0.21,2.06-1.05,3.85-2.86,4.07c-1.98,0.25-3.59-0.93-3.84-3.09c-0.54-4.68-1.22-9.31-2.8-13.78
	c-4.75-13.49-13.5-23.49-26.2-30.01c-9.03-4.63-18.69-6.29-28.73-5.32c-10.38,1-19.7,4.84-27.8,11.44
	c-10.24,8.34-16.43,19.11-18.8,32.08c-0.33,1.81-0.36,3.68-0.66,5.5c-0.38,2.29-1.94,3.49-3.95,3.18c-1.81-0.28-2.92-1.96-2.71-4.16
	C14.96,113.18,26,96.91,45.71,86.47C48.44,85.02,51.37,84.01,54.46,82.94z M71.68,79.98c18.45,0.09,33.28-14.16,34.56-31.81
	c1.46-20.17-14.22-36.33-33.11-37c-18.58-0.66-34.85,14.2-35.5,32.51C36.91,63.72,51.47,79.24,71.68,79.98z"/>
</svg>
