<?xml version="1.0" encoding="utf-8"?>
<!-- Generator: Adobe Illustrator 25.0.0, SVG Export Plug-In . SVG Version: 6.00 Build 0)  -->
<svg version="1.1" id="Layer_1" xmlns="http://www.w3.org/2000/svg" xmlns:xlink="http://www.w3.org/1999/xlink" x="0px" y="0px"
	 viewBox="0 0 144 144" style="enable-background:new 0 0 144 144;" xml:space="preserve">
<style type="text/css">
	.st0{fill:#A7A9AC;}
</style>
<g>
	<g>
		<path class="st0" d="M75.07,92.07c-21.18,0-38.41-17.23-38.41-38.41s17.23-38.41,38.41-38.41s38.41,17.23,38.41,38.41
			S96.25,92.07,75.07,92.07z M75.07,18.66c-19.29,0-34.99,15.7-34.99,34.99s15.7,34.99,34.99,34.99c19.29,0,34.99-15.7,34.99-34.99
			S94.36,18.66,75.07,18.66z"/>
		<path class="st0" d="M90.54,77.46l-15.47-8.13L59.6,77.46l2.95-17.23l-12.52-12.2l17.3-2.51l7.74-15.67l7.74,15.67l17.3,2.51
			l-12.52,12.2L90.54,77.46z M75.07,66.75l12.44,6.54l-2.38-13.85l10.07-9.81L81.29,47.6L75.07,35l-6.22,12.6l-13.91,2.02L65,59.43
			l-2.38,13.85L75.07,66.75z"/>
		<path class="st0" d="M123.58,53.65c0-26.75-21.76-48.51-48.51-48.51c-26.74,0-48.5,21.76-48.5,48.51
			c0,13.06,5.19,24.94,13.62,33.66l-19.75,35.25l23.81-6.84l5.59,23.13l21.07-34.18l21.07,34.18l5.6-23.13l23.79,6.84l-16.97-30.29
			C116.03,83.41,123.58,69.4,123.58,53.65z M51.66,127.14l-4.18-17.28l-17.51,5.03l13.6-24.29l0.21,0.08
			c6.61,5.59,14.72,9.45,23.65,10.86L51.66,127.14z M68.24,97.3c-8.82-1.36-16.78-5.35-23.05-11.14c-8.79-8.07-14.3-19.65-14.3-32.5
			c0-24.37,19.81-44.19,44.18-44.19c24.37,0,44.19,19.82,44.19,44.19c0,14.12-6.66,26.72-17,34.81c-1.2,0.95-2.47,1.83-3.77,2.65
			c-5.28,3.31-11.3,5.54-17.76,6.37c-1.86,0.23-3.74,0.35-5.66,0.35h-0.18C72.62,97.82,70.41,97.64,68.24,97.3z M111.8,114.89
			l-17.5-5.03l-4.19,17.28l-15.4-24.98h0.34c9.36,0,18.11-2.67,25.53-7.27L111.8,114.89z"/>
	</g>
</g>
</svg>
