<?xml version="1.0" encoding="utf-8"?>
<!-- Generator: Adobe Illustrator 25.0.0, SVG Export Plug-In . SVG Version: 6.00 Build 0)  -->
<svg version="1.1" id="Layer_1" xmlns="http://www.w3.org/2000/svg" xmlns:xlink="http://www.w3.org/1999/xlink" x="0px" y="0px"
	 viewBox="0 0 144 144" style="enable-background:new 0 0 144 144;" xml:space="preserve">
<g>
	<g>
		<path d="M76.57,31.98c-0.77,0.82-1.55,1.65-2.5,2.64l-2.62,2.74l-2.73-2.65c-0.81-0.78-1.62-1.59-2.42-2.37
			c-8.43-8.29-14.78-14.54-27.86-14.71c-0.51-0.01-1.06,0-1.62,0.02c-7.32,0.26-14.07,2.95-19,7.56
			c-4.86,4.54-7.96,10.99-8.07,18.83c-0.01,0.49,0,1,0.02,1.56c0.78,21.9,21.74,41,39.11,56.82c3.35,3.06,6.57,5.99,9.65,8.95
			l12.79,12.33l16.08-15.95c2.59-2.57,5.52-5.37,8.66-8.37c5.33-5.11,11.26-10.78,16.78-16.5c3.97-4.1,7.73-8.23,10.92-12.19
			c3.14-3.89,5.7-7.58,7.35-10.87c2.7-5.41,3.56-10.82,2.98-15.87c-0.57-4.99-2.53-9.65-5.48-13.62c-2.99-4.03-6.97-7.37-11.52-9.66
			c-5.25-2.61-11.26-3.85-17.41-3.15C89.08,18.72,83.43,24.71,76.57,31.98L76.57,31.98z M71.24,26.62
			C79.08,18.32,85.59,11.51,98.82,10c7.64-0.87,15.11,0.65,21.62,3.92c5.62,2.82,10.53,6.93,14.21,11.9
			c3.72,5.02,6.2,10.92,6.93,17.26c0.74,6.43-0.33,13.28-3.75,20.1c-1.93,3.85-4.79,7.99-8.21,12.23
			c-3.35,4.16-7.26,8.45-11.36,12.69c-5.62,5.83-11.6,11.56-16.99,16.71c-3.15,3.01-6.09,5.83-8.57,8.28L74,131.64l-2.62,2.6
			l-2.66-2.56L53.27,116.8c-2.83-2.72-6.1-5.7-9.5-8.81C25.35,91.19,3.11,70.93,2.22,45.85c-0.02-0.61-0.02-1.25-0.02-1.91
			c0.14-10.07,4.16-18.38,10.46-24.27c6.25-5.83,14.74-9.24,23.87-9.57c0.62-0.02,1.28-0.03,1.98-0.02
			C54.46,10.29,61.75,17.28,71.24,26.62L71.24,26.62z"/>
	</g>
</g>
</svg>
