<?xml version="1.0" encoding="utf-8"?>
<!-- Generator: Adobe Illustrator 25.0.0, SVG Export Plug-In . SVG Version: 6.00 Build 0)  -->
<svg version="1.1" id="Layer_1" xmlns="http://www.w3.org/2000/svg" xmlns:xlink="http://www.w3.org/1999/xlink" x="0px" y="0px"
	 viewBox="0 0 144 144" style="enable-background:new 0 0 144 144;" xml:space="preserve">
<style type="text/css">
	.st0{fill:#BCBEC0;}
</style>
<g>
	<g>
		<g>
			<path class="st0" d="M126.93,119.69c-4.49-9.15-10.91-15.16-19.58-18.36c-3.63-1.34-7.4-2.56-11.03-3.73l-0.86-0.29
				c-1.17-0.38-1.89-1-2.39-2.03c-1.03-2.2-1.98-4.18-3.03-6.07c-0.67-1.17-1.34-2.91,0.62-4.59c0.5-0.41,0.91-1.03,1.34-1.67
				l0.38-0.55c2.58-3.68,4.13-7.88,4.73-12.82c0.26-2.08,1.65-2.39,2.75-2.29c0.69,0.07,1.36,0.05,2.05,0.02h0.84
				c4.37-0.05,7.12-2.77,7.14-7.14c0-5.21,0.02-10.41,0-15.59c-0.05-6.88-1.65-13.11-4.78-18.58c-4.94-8.69-12.13-14.59-21.35-17.65
				h-0.02C75.3,6.07,68.59,6.5,64.5,7.21c-0.1,0.02-0.17,0.05-0.26,0.07c-0.38,0.05-0.74,0.14-1.1,0.21
				c-0.07,0.02-0.12,0.02-0.17,0.05c-0.86,0.21-1.7,0.45-2.53,0.72c-0.1,0.02-0.17,0.07-0.22,0.07c-0.02,0.02-0.05,0.02-0.05,0.02
				c-5.35,1.74-10.17,4.59-14.28,8.55c-6.78,6.52-10.65,14.45-11.49,23.59c-0.48,5.09-0.38,10.34-0.29,15.4
				c0.02,1.72,0.05,3.44,0.07,5.16c0.02,2.36,1.17,4.2,3.37,5.35c1.36,0.69,1.91,1.7,1.82,3.22c-0.12,1.77,0.05,3.03,0.57,4.13
				c1.24,2.6,3.25,3.96,5.99,3.89h0.12c2.17,0,3.49,0.84,4.37,2.79c0.74,1.62,1.86,3.18,3.56,4.92c0.88,0.91,1.03,1.84,0.43,2.94
				c-1.07,2.03-2.2,4.2-3.2,6.45c-0.62,1.39-1.62,2.24-3.22,2.77c-1.31,0.43-2.65,0.84-3.99,1.24c-3.22,0.96-6.57,1.96-9.55,3.46
				c-13.16,6.62-20.28,17.79-21.14,33.24c-0.02,0.67,0.07,1.15,0.33,1.41c0.36,0.38,1.12,0.45,1.7,0.45
				c37.76,0.02,75.49,0.02,113.25,0c0.86,0,1.41-0.14,1.7-0.43c0.29-0.26,0.41-0.84,0.38-1.67
				C130.56,129.72,129.29,124.49,126.93,119.69z M90.84,97.1c0.31,0.62,0.36,1.24,0.12,1.91c-1.58,4.47-3.44,8.76-5.73,13.16
				l-0.74,1.46l-9.53-9.55c-1.19-1.17-0.41-2.2-0.14-2.48c2.89-3.01,5.76-6.04,8.65-9.12l3.32-3.49l1.6,3.18
				C89.22,93.85,90.03,95.48,90.84,97.1z M72.98,99.49c-0.17,0.17-0.6,0.64-1.29,0.64c-0.02,0-0.02,0-0.02,0
				c-0.45,0-0.88-0.19-1.27-0.6c-1-1.03-2.03-2.05-3.15-3.15l-4.32-4.27l3.84,0.72c3.22,0.62,6.09,0.69,9.31,0.24l3.37-0.48
				l-3.34,3.53C75.01,97.32,73.98,98.39,72.98,99.49z M96.62,43.61c-0.02,0.38-0.05,0.98-0.57,1.41c-0.36,0.29-0.74,0.36-1.1,0.36
				h-0.36c-9.29-1.07-17.39-4.44-24.02-9.98c-0.76-0.64-1.48-1.31-2.22-2.01l-0.24-0.24c-0.55-0.5-1.17-0.72-1.96-0.67
				c-6.33,0.33-11.44,2.67-15.67,7.16l-0.72,0.74l-2.27,1.05l0.07-2.03c0.6-4.94,2.63-9.24,5.99-12.78
				c4.32-4.54,9.72-6.88,16.02-6.95l0.53-0.02c3.89-0.05,7.93-0.1,11.87,1.36C91.25,24.48,97.27,33.74,96.62,43.61z M107.06,56
				c0,1.41,0,2.82-0.02,4.23c-0.02,2.7-1.5,4.2-4.18,4.25c-0.33,0.02-0.67,0-0.98,0c-0.48,0-0.96-0.02-1.41,0.02
				c-0.1,0-0.21,0.02-0.36,0.02c-0.43,0-1.03-0.1-1.48-0.57c-0.62-0.64-0.5-1.55-0.45-1.84c0.69-5.06,0.96-10.05,1.15-14.26
				c0.02-0.48,0.12-1.19,0.67-1.7c0.55-0.5,1.24-0.5,1.74-0.48c1,0.07,2.05,0.07,3.22,0c0.26-0.02,1-0.05,1.58,0.48
				c0.55,0.55,0.53,1.29,0.53,1.62c-0.02,1.5-0.02,3.01-0.02,4.54L107.06,56z M37.18,40.72c0.76-7.59,3.77-14.33,8.93-20.01
				c5.16-5.66,11.46-9.27,18.72-10.67c11.99-2.32,22.54,0.72,31.38,9.03c6.28,5.9,9.89,13.47,10.7,22.52l0.12,1.31l-2.65-0.02
				c-1.03,0-2.05,0-3.06,0.02c-0.6,0-1.05-0.14-1.41-0.48c-0.5-0.48-0.5-1.1-0.5-1.43c-0.26-4.66-1.53-8.69-3.75-12.18
				c-4.63-7.21-11.2-11.2-19.51-11.85c-4.54-0.33-9.82-0.55-14.64,1.29c-10.15,3.92-15.83,11.44-16.86,22.33
				c-0.07,0.6-0.24,2.34-2.27,2.34c-0.12,0-0.24,0-0.38-0.02c-0.93-0.07-1.91-0.05-2.82,0c-0.29,0.02-1.05,0.07-1.58-0.5
				C37.06,41.82,37.13,41.05,37.18,40.72z M40.95,64.48c-2.41-0.07-3.94-1.62-3.99-4.04c-0.02-1.48-0.02-2.99,0-4.47v-3.63
				c0-1.5,0-3.01-0.02-4.49c0-0.33-0.02-1.12,0.55-1.67c0.57-0.57,1.36-0.53,1.62-0.5c0.98,0.05,2.01,0.05,3.39,0
				c1.82,0,2.13,1.19,2.15,1.96c0.24,4.44,0.53,9.6,1.19,14.66c0.02,0.26,0.14,1.05-0.43,1.67c-0.43,0.45-1.05,0.53-1.41,0.53h-0.24
				c-0.48-0.02-0.96-0.02-1.43-0.02C41.86,64.5,41.41,64.5,40.95,64.48z M47.16,74.41c-0.36,0.41-0.81,0.48-1.19,0.48
				c-0.17,0-0.33-0.02-0.45-0.02c-1.74-0.24-3.06-1.6-3.3-3.37c-0.05-0.36-0.05-0.74-0.05-1.1c0-0.24,0.02-0.5,0-0.74
				c-0.05-0.31-0.14-1.31,0.6-1.96c0.41-0.36,0.96-0.5,1.62-0.41c0.6-0.1,1.12,0,1.55,0.29c0.72,0.48,0.88,1.29,0.96,1.86
				c0.12,1.15,0.31,2.24,0.57,3.3C47.52,73.01,47.71,73.82,47.16,74.41z M53.32,79.84l-0.19-0.31l0.07-1.6l1.15-0.19h4.42
				c1.43,0.05,1.89,0.98,2.05,1.31c1.27,2.63,3.39,3.89,6.42,3.89c0.02,0,0.02,0,0.02,0h1.53c1.05,0.02,2.1,0.02,3.13,0
				c3.77-0.1,6.66-2.91,6.69-6.54c0.05-3.65-2.89-6.59-6.66-6.66l-1.34-0.05c-1.72-0.07-3.34-0.12-4.94,0.14
				c-2.2,0.36-3.8,1.58-4.8,3.63c-0.48,1.03-1.24,1.46-2.34,1.48c-2.29-0.07-4.04-0.07-5.66,0c-1.91,0.05-2.36-1.48-2.46-1.98
				c-0.98-4.32-1.48-8.79-1.93-12.7c-0.45-3.92-0.74-7.47-0.88-10.84c-0.05-0.62-0.1-1.34,0.43-2.03c0.48-0.62,0.96-1.27,1.41-1.89
				c1.72-2.34,3.49-4.73,6.04-6.52c2.77-1.98,5.99-3.2,9.55-3.61c1.22-0.17,1.89,0.53,2.32,0.91c6.09,5.49,13.04,9.07,20.85,10.84
				c1.7,0.38,3.49,0.64,5.23,0.88l1.07,0.17c1.36,0.21,1.98,0.98,1.91,2.29c-0.55,8.22-1.15,15.62-2.99,23.02
				c-2.24,8.91-9.74,15.71-18.65,16.96c-0.91,0.12-1.84,0.19-2.75,0.19C64.62,90.63,57.34,86.52,53.32,79.84z M63.02,76.37
				c-0.05-2.13,1.62-3.75,3.94-3.84c0.6-0.02,1.17-0.02,1.77,0h1.46c0.55-0.02,1.12-0.02,1.67,0c2.32,0.1,3.96,1.72,3.94,3.84
				c-0.05,2.1-1.67,3.65-3.89,3.73c-0.84,0.02-1.67,0.05-2.51,0.05c-0.84,0-1.67-0.02-2.51-0.05
				C64.69,80.03,63.04,78.45,63.02,76.37z M53.21,97.03l0.43-0.84c0.69-1.36,1.36-2.75,2.03-4.13c0.12-0.24,0.45-0.96,1.27-1.1
				c0.79-0.12,1.36,0.43,1.55,0.64c3.32,3.32,6.62,6.64,9.93,9.93c0.62,0.6,1.12,1.58-0.05,2.82c-2.03,2.1-4.04,4.23-6.11,6.42
				l-2.7,2.84l-0.76-1.46c-2.1-3.96-3.94-8.17-5.78-13.21C52.68,98.06,53.04,97.34,53.21,97.03z M57.53,134.52
				c-12.9,0-25.79,0-38.69,0.05c-0.02,0-0.02,0-0.02,0c-0.76,0-1.53-0.1-2.05-0.72c-0.53-0.62-0.48-1.43-0.38-2.08
				c2.32-14.04,9.77-23.5,22.16-28.16c1.89-0.69,3.8-1.31,5.71-1.93c1.36-0.43,2.7-0.86,4.04-1.31c1.34-0.45,2.24-0.05,2.72,1.27
				c3.27,8.86,7.81,17.24,13.9,25.65c0.81,1.12,1.53,2.32,2.29,3.58c0.36,0.6,0.74,1.22,1.15,1.84l1.15,1.81H57.53z M71.98,133.59
				l-1.03-1.89c-1.6-2.91-3.44-5.59-5.23-8.19c-1.24-1.79-2.53-3.65-3.7-5.56c-0.72-1.19-0.62-2.2,0.36-3.2
				c2.58-2.67,5.13-5.37,7.67-8.1c0.33-0.36,0.88-0.96,1.72-0.98c0.02,0,0.02,0,0.02,0c0.76,0,1.31,0.5,1.67,0.86
				c1.96,2.05,3.99,4.06,5.99,6.04l2.24,2.27c0.41,0.38,1.39,1.31,0.53,2.75c-1.27,2.05-2.63,4.06-3.96,5.99
				c-1.77,2.58-3.61,5.25-5.23,8.12L71.98,133.59z M127.19,133.69c-0.67,0.84-1.72,0.84-3.63,0.84H74.48l1.17-1.84
				c0.45-0.67,0.86-1.34,1.27-2.01c0.86-1.39,1.67-2.7,2.6-3.99c5.73-7.95,10.25-16.33,13.4-24.88c0.55-1.46,1.53-1.91,3.01-1.39
				c1.46,0.53,2.91,0.98,4.37,1.43c2.7,0.84,5.47,1.7,8.1,2.94c10.2,4.87,16.57,13.35,18.94,25.22
				C127.67,131.73,127.91,132.85,127.19,133.69z"/>
		</g>
		<g>
			<path class="st0" d="M117.8,123.9c-0.12,0.91-0.45,1.19-0.98,1.36c-0.64,0.21-1.05,0.07-1.43-0.43
				c-0.33-0.45-0.62-0.93-0.91-1.43c-0.21-0.38-0.45-0.76-0.69-1.15c-1.15-1.72-2.67-3.37-4.78-5.18c-0.69-0.57-0.67-1.07-0.57-1.43
				c0.17-0.6,0.5-0.91,1.1-1.07c0.1-0.02,0.19-0.05,0.31-0.05c0.24,0,0.55,0.1,0.93,0.41c2.91,2.32,5.21,5.13,6.83,8.33
				c0.07,0.17,0.12,0.38,0.17,0.57L117.8,123.9z"/>
		</g>
		<g>
			<path class="st0" d="M102.04,111.02c-0.05,0.72-0.72,1.39-1.46,1.31c-0.69-0.05-1.34-0.72-1.34-1.39c0-0.02,0-0.02,0-0.05
				c0.02-0.72,0.72-1.36,1.39-1.36c0.02,0,0.02,0,0.05,0c0.36,0.02,0.72,0.19,1,0.5C101.92,110.33,102.07,110.69,102.04,111.02z"/>
		</g>
	</g>
</g>
</svg>
