<?xml version="1.0" encoding="utf-8"?>
<!-- Generator: Adobe Illustrator 25.0.0, SVG Export Plug-In . SVG Version: 6.00 Build 0)  -->
<svg version="1.1" id="Layer_1" xmlns="http://www.w3.org/2000/svg" xmlns:xlink="http://www.w3.org/1999/xlink" x="0px" y="0px"
	 viewBox="0 0 144 144" style="enable-background:new 0 0 144 144;" xml:space="preserve">
<style type="text/css">
	.st0{fill:#BCBEC0;}
</style>
<g>
	<g>
		<path class="st0" d="M134.96,64.52C128.4,35.06,101.99,11.14,72.2,7.65h-0.22c-0.96,0-1.78,0.71-1.89,1.69
			c-0.07,0.51,0.09,1,0.4,1.4c0.33,0.4,0.78,0.67,1.29,0.71c14.12,1.67,27.43,8.16,37.99,17.72s18.34,22.21,21.45,36.17
			c0.11,0.49,0.42,0.91,0.84,1.2c0.42,0.27,0.93,0.36,1.45,0.24C134.53,66.57,135.18,65.54,134.96,64.52z M115.86,70.3
			c-5.36-21.08-24.57-39.04-45.66-42.69c-0.11-0.02-0.22-0.04-0.31-0.04c-0.4,0-0.78,0.13-1.11,0.36c-0.42,0.29-0.69,0.73-0.78,1.24
			c-0.18,1.04,0.53,2.02,1.56,2.2h0.02c19.65,3.42,37.55,20.19,42.57,39.88c0.11,0.49,0.42,0.91,0.87,1.18
			c0.44,0.27,0.96,0.33,1.47,0.2C115.5,72.37,116.13,71.32,115.86,70.3z M94.27,72.15c-3.31-10.56-13.01-19.61-24.1-22.5
			c-0.16-0.04-0.31-0.07-0.49-0.07c-0.33,0-0.67,0.09-0.96,0.27c-0.44,0.24-0.76,0.67-0.87,1.16c-0.27,1.02,0.33,2.07,1.36,2.33
			c4.87,1.27,9.49,3.96,13.25,7.47c3.78,3.51,6.69,7.87,8.14,12.47c0.16,0.49,0.49,0.89,0.93,1.13C92,74.66,92.52,74.7,93,74.55
			c0.49-0.16,0.89-0.49,1.13-0.93C94.36,73.17,94.43,72.64,94.27,72.15z M121.95,106.72c-0.78-1.6-1.91-2.93-3.38-3.96
			c-4.54-3.36-15.3-9.2-21.03-12.12c-6.91-3.2-11.14,1.38-15.94,7.71l-0.33,0.42c-0.91,1.2-1.65,2.16-2.91,3.29l-0.87,0.78
			l-1.02-0.53C62.04,94.8,52.14,84.91,43.38,69.23l-0.51-0.89l0.58-0.84c0.27-0.42,0.69-0.76,4.05-3.2
			c5.42-3.98,9.54-7.47,8.78-12.96c-0.2-1.51-0.84-3-1.89-4.42L41.56,25.26c-0.71-1.27-2-2.16-3.42-2.33l-0.27-0.02
			c-1.02-0.09-2.02-0.13-2.98-0.13c-9.8,0-17.59,4.47-22.03,12.81C7.43,45.76,8.9,57.63,10.28,63.81c1.4,6.29,3.91,12.74,7.49,19.21
			c3.6,6.51,8.18,12.94,13.61,19.1c5.4,6.14,11.56,11.87,17.83,16.59c3.18,2.38,6.36,4.36,9.16,6.09l0.78,0.49
			c7.27,4.49,13.05,7.27,18.72,9.03c8.43,2.6,16.23,2.71,25.32,0.36c8.03-2.09,13.52-5.87,16.74-11.54c1-1.76,1.8-3.67,2.36-5.51
			C123.13,114.72,123.77,110.5,121.95,106.72z M118.35,116.45c-2.87,9.74-10.6,12.78-16.21,14.23c-1.71,0.44-3.62,0.82-5.8,1.16
			c-1.8,0.27-3.58,0.38-5.31,0.38c-11.25,0-21.23-5.16-29.7-10.4l-0.78-0.51c-2.62-1.62-5.89-3.65-8.87-5.87
			c-12.32-9.29-23.37-21.83-30.3-34.39c-3.42-6.18-5.8-12.27-7.11-18.12c-2.11-9.56-1.31-18.83,2.22-25.41
			c4.02-7.56,11.12-11.2,20.48-10.56l0.89,0.07l13.27,22.37c0.76,1.02,1.71,2.73,0.69,5.05c-1.09,2.51-4.22,4.76-6.29,6.25
			l-0.44,0.31c-4.42,3.2-7.2,5.6-5.62,9.56c0.04,0.13,0.11,0.27,0.18,0.38l0.04,0.07c9.36,16.81,20.01,27.39,35.64,35.35l0.38,0.16
			c1.02,0.42,2.07,0.42,3.13,0.04c2.33-0.89,4.07-3.16,5.74-5.36l0.31-0.38c2.56-3.36,6.42-8.45,10.89-6.47
			c3.91,2.07,13.54,7.27,20.45,11.78C118.99,108.12,119.73,111.79,118.35,116.45z"/>
	</g>
</g>
</svg>
