<?xml version="1.0" encoding="utf-8"?>
<!-- Generator: Adobe Illustrator 25.0.0, SVG Export Plug-In . SVG Version: 6.00 Build 0)  -->
<svg version="1.1" id="Layer_1" xmlns="http://www.w3.org/2000/svg" xmlns:xlink="http://www.w3.org/1999/xlink" x="0px" y="0px"
	 viewBox="0 0 144 144" style="enable-background:new 0 0 144 144;" xml:space="preserve">
<style type="text/css">
	.st0{fill:#BCBEC0;}
</style>
<g>
	<g>
		<g>
			<path class="st0" d="M130.28,67.16c-1.06-12.59-5.75-23.75-13.89-33.23c-8.33-9.67-18.91-16.05-31.44-18.97
				c-3.1-0.73-6.29-1.16-9.49-1.34l-1.12-0.09h-5.59c-0.52,0.18-1.03,0.18-1.4,0.18l-0.33,0.03C54.7,14.83,43.75,19.36,34.39,27.2
				c-9.46,7.97-15.84,18.09-19.03,30.13c-0.88,3.37-1.49,7.02-1.73,10.79c0.03,0.36-0.03,0.64-0.12,0.88v6.14
				c0.18,0.55,0.18,1.06,0.18,1.46l0.03,0.36c1.67,20.07,13.35,37.61,31.22,46.91c6.84,3.56,14.02,5.69,21.34,6.32
				c16.42,1.46,31.04-3.13,43.48-13.56c9.36-7.84,15.72-17.91,18.88-29.95C130.28,80.35,130.86,73.75,130.28,67.16z M72.03,126.08
				c-0.03,0-0.03,0-0.06,0c-14.47,0-28.03-5.66-38.25-15.87C23.5,99.96,17.91,86.4,17.94,71.96c0.03-29.8,24.29-54.03,54.03-54.03
				c0.03,0,0.03,0,0.06,0c14.47,0.03,28.03,5.66,38.25,15.9c10.22,10.22,15.81,23.81,15.78,38.25
				C125.99,101.88,101.76,126.08,72.03,126.08z"/>
		</g>
		<g>
			<path class="st0" d="M101.88,85.49c-0.03,0.67-0.27,1.22-0.7,1.64c-6.38,6.26-13.83,10.25-22.1,11.83
				c-2.28,0.43-4.68,0.64-7.54,0.7c-9.61-0.15-18.39-3.47-26.15-9.91c-1.06-0.88-2.01-1.73-2.8-2.55c-0.85-0.88-0.85-1.61-0.76-2.07
				c0.03-0.24,0.15-0.58,0.46-0.76c0.12-0.06,0.27-0.09,0.43-0.09c0.18,0,0.36,0.03,0.58,0.12c0.3,0.12,0.61,0.43,0.97,0.76
				c4.9,4.71,10.37,7.97,16.27,9.73c11.89,3.59,23.26,1.73,33.81-5.5c1.79-1.25,3.56-2.71,5.32-4.44c0.4-0.4,0.7-0.58,1.03-0.64
				c0.33-0.06,0.64,0,0.85,0.18C101.79,84.73,101.91,85.06,101.88,85.49z"/>
		</g>
		<g>
			<path class="st0" d="M103.28,61.07c0,1.64-0.67,3.13-1.76,4.23c-1.06,1.09-2.55,1.76-4.23,1.76c-3.31,0-5.99-2.71-6.02-5.99
				c0-1.61,0.64-3.13,1.79-4.26c1.12-1.16,2.65-1.76,4.23-1.76h0.03C100.61,55.05,103.28,57.76,103.28,61.07z"/>
		</g>
		<g>
			<path class="st0" d="M52.42,61.04c0,1.58-0.61,3.07-1.76,4.23c-1.12,1.16-2.61,1.76-4.2,1.79c-0.03,0-0.03,0-0.03,0
				c-3.28,0-5.99-2.68-6.02-5.96c0-3.31,2.65-6.05,5.93-6.05c0.03,0,0.03,0,0.03,0c1.64,0,3.16,0.67,4.26,1.76
				C51.72,57.88,52.39,59.4,52.42,61.04z"/>
		</g>
	</g>
</g>
</svg>
