<?xml version="1.0" encoding="utf-8"?>
<!-- Generator: Adobe Illustrator 25.0.0, SVG Export Plug-In . SVG Version: 6.00 Build 0)  -->
<svg version="1.1" id="Layer_1" xmlns="http://www.w3.org/2000/svg" xmlns:xlink="http://www.w3.org/1999/xlink" x="0px" y="0px"
	 viewBox="0 0 144 144" style="enable-background:new 0 0 144 144;" xml:space="preserve">
<style type="text/css">
	.st0{fill:#FCFCFC;stroke:#A7A9AC;stroke-width:0.5;stroke-miterlimit:10;}
	.st1{fill:#414042;}
</style>
<g>
	<rect x="4.14" y="4.14" class="st0" width="135.72" height="135.72"/>
	<g id="XMLID_13_">
		<g>
			<path id="XMLID_29_" class="st1" d="M86.87,35.21H57.13c-12.09,0-21.92,9.83-21.92,21.92v29.74c0,12.09,9.83,21.92,21.92,21.92
				h29.74c12.09,0,21.92-9.83,21.92-21.92V57.13C108.79,45.04,98.96,35.21,86.87,35.21z M101.39,86.87c0,8.02-6.5,14.52-14.52,14.52
				H57.13c-8.02,0-14.52-6.5-14.52-14.52V57.13c0-8.02,6.5-14.52,14.52-14.52h29.74c8.02,0,14.52,6.5,14.52,14.52L101.39,86.87
				L101.39,86.87z"/>
			<path id="XMLID_28_" class="st1" d="M72,52.97c-10.49,0-19.03,8.54-19.03,19.03S61.51,91.03,72,91.03S91.03,82.49,91.03,72
				S82.49,52.97,72,52.97z M72,83.63c-6.42,0-11.63-5.21-11.63-11.63S65.58,60.37,72,60.37c6.42,0,11.63,5.21,11.63,11.63
				C83.63,78.42,78.42,83.63,72,83.63z"/>
			<circle id="XMLID_27_" class="st1" cx="91.07" cy="53.11" r="4.56"/>
		</g>
	</g>
</g>
</svg>
