<?xml version="1.0" encoding="utf-8"?>
<!-- Generator: Adobe Illustrator 25.0.0, SVG Export Plug-In . SVG Version: 6.00 Build 0)  -->
<svg version="1.1" id="Layer_1" xmlns="http://www.w3.org/2000/svg" xmlns:xlink="http://www.w3.org/1999/xlink" x="0px" y="0px"
	 viewBox="0 0 144 144" style="enable-background:new 0 0 144 144;" xml:space="preserve">
<style type="text/css">
	.st0{fill:#FCFCFC;stroke:#A7A9AC;stroke-width:0.5;stroke-miterlimit:10;}
	.st1{fill:#414042;}
</style>
<g>
	<rect x="4.14" y="4.14" class="st0" width="135.72" height="135.72"/>
	<g id="XMLID_59_">
		<g>
			<g id="XMLID_31_">
				<rect id="XMLID_33_" x="45.5" y="62.8" class="st1" width="11.39" height="36.81"/>
				<path id="XMLID_32_" class="st1" d="M51.14,57.98c3.72,0,6.74-3.04,6.74-6.79s-3.02-6.79-6.74-6.79c-3.72,0-6.74,3.04-6.74,6.79
					S47.42,57.98,51.14,57.98z"/>
			</g>
			<path id="XMLID_30_" class="st1" d="M75.11,80.29c0-5.17,2.38-8.26,6.94-8.26c4.19,0,6.2,2.96,6.2,8.26c0,5.3,0,19.32,0,19.32
				H99.6c0,0,0-13.45,0-23.31c0-9.86-5.59-14.63-13.39-14.63c-7.81,0-11.09,6.08-11.09,6.08V62.8H64.18v36.81h10.93
				C75.11,99.61,75.11,85.96,75.11,80.29z"/>
		</g>
	</g>
</g>
</svg>
