<?xml version="1.0" encoding="utf-8"?>
<!-- Generator: Adobe Illustrator 25.0.0, SVG Export Plug-In . SVG Version: 6.00 Build 0)  -->
<svg version="1.1" id="Layer_1" xmlns="http://www.w3.org/2000/svg" xmlns:xlink="http://www.w3.org/1999/xlink" x="0px" y="0px"
	 viewBox="0 0 144 144" style="enable-background:new 0 0 144 144;" xml:space="preserve">
<style type="text/css">
	.st0{fill:#FCFCFC;stroke:#A7A9AC;stroke-width:0.5;stroke-miterlimit:10;}
	.st1{fill:#414042;}
</style>
<g>
	<rect x="4.14" y="4.14" class="st0" width="135.72" height="135.72"/>
	<path id="XMLID_71_" class="st1" d="M38.27,93.19c6.12,3.93,13.4,6.22,21.21,6.22c25.69,0,40.21-21.7,39.34-41.17
		c2.7-1.95,5.05-4.39,6.91-7.16c-2.48,1.1-5.15,1.85-7.95,2.18c2.86-1.71,5.05-4.42,6.08-7.66c-2.67,1.59-5.64,2.74-8.79,3.36
		c-2.53-2.69-6.12-4.37-10.1-4.37c-8.93,0-15.5,8.34-13.48,16.99c-11.5-0.58-21.7-6.09-28.52-14.46
		c-3.63,6.22-1.88,14.36,4.28,18.48c-2.27-0.07-4.41-0.7-6.27-1.73c-0.15,6.41,4.44,12.41,11.1,13.75
		c-1.95,0.53-4.08,0.65-6.25,0.24c1.76,5.5,6.87,9.5,12.93,9.61C52.94,92.02,45.61,94.06,38.27,93.19z"/>
</g>
</svg>
